<?xml version="1.0" encoding="UTF-8" standalone="no"?>
<!DOCTYPE svg PUBLIC "-//W3C//DTD SVG 20010904//EN"
              "http://www.w3.org/TR/2001/REC-SVG-20010904/DTD/svg10.dtd">

<svg xmlns="http://www.w3.org/2000/svg"
     width="135.467mm" height="101.6mm"
     viewBox="0 0 1600 1200">
  <path id="Selection"
        fill="none" stroke="black" stroke-width="1"
        d="M 689.00,213.00
           C 677.95,207.68 669.44,202.02 664.95,190.00
             658.22,171.99 668.03,150.78 687.00,145.76
             690.56,144.82 694.34,144.96 698.00,145.00
             711.33,145.16 721.37,152.70 727.98,164.00
             731.91,170.70 731.33,175.36 735.22,178.15
             738.27,180.33 748.68,180.91 753.00,181.89
             753.00,181.89 797.00,192.77 797.00,192.77
             797.00,192.77 824.00,198.51 824.00,198.51
             824.00,198.51 838.00,203.33 838.00,203.33
             838.00,203.33 858.00,206.42 858.00,206.42
             858.00,206.42 872.00,210.35 872.00,210.35
             872.00,210.35 894.00,215.15 894.00,215.15
             894.00,215.15 913.00,220.49 913.00,220.49
             913.00,220.49 923.00,222.21 923.00,222.21
             923.00,222.21 936.00,225.58 936.00,225.58
             936.00,225.58 960.00,230.68 960.00,230.68
             960.00,230.68 970.00,233.88 970.00,233.88
             970.00,233.88 996.00,239.04 996.00,239.04
             996.00,239.04 1007.00,242.12 1007.00,242.12
             1007.00,242.12 1031.00,247.48 1031.00,247.48
             1031.00,247.48 1044.00,251.35 1044.00,251.35
             1044.00,251.35 1062.00,254.90 1062.00,254.90
             1062.00,254.90 1071.00,257.49 1071.00,257.49
             1071.00,257.49 1096.00,262.67 1096.00,262.67
             1096.00,262.67 1108.00,266.57 1108.00,266.57
             1108.00,266.57 1132.00,271.23 1132.00,271.23
             1132.00,271.23 1147.00,275.50 1147.00,275.50
             1147.00,275.50 1156.00,277.44 1156.00,277.44
             1156.00,277.44 1165.00,280.49 1165.00,280.49
             1169.94,281.73 1173.67,281.29 1177.68,285.22
             1177.68,285.22 1204.02,319.00 1204.02,319.00
             1224.46,348.51 1230.59,358.58 1245.89,391.00
             1271.04,444.32 1286.31,505.92 1287.00,565.00
             1287.00,565.00 1287.82,577.00 1287.82,577.00
             1287.82,577.00 1287.00,596.00 1287.00,596.00
             1287.00,596.00 1286.00,614.00 1286.00,614.00
             1285.85,626.43 1279.53,665.17 1276.50,678.00
             1276.50,678.00 1272.42,692.00 1272.42,692.00
             1272.42,692.00 1270.22,702.00 1270.22,702.00
             1270.22,702.00 1264.07,720.00 1264.07,720.00
             1264.07,720.00 1261.46,729.00 1261.46,729.00
             1261.46,729.00 1251.87,752.00 1251.87,752.00
             1251.87,752.00 1248.97,760.00 1248.97,760.00
             1229.89,802.42 1203.77,841.91 1172.28,876.09
             1172.28,876.09 1161.99,888.00 1161.99,888.00
             1161.99,888.00 1134.00,913.29 1134.00,913.29
             1088.77,952.42 1040.65,979.45 984.00,998.33
             960.90,1006.03 937.14,1012.10 913.00,1015.57
             913.00,1015.57 904.00,1016.44 904.00,1016.44
             883.15,1019.70 876.70,1019.76 856.00,1020.00
             856.00,1020.00 844.00,1020.82 844.00,1020.82
             844.00,1020.82 836.00,1020.10 836.00,1020.10
             836.00,1020.10 827.00,1020.90 827.00,1020.90
             827.00,1020.90 785.00,1016.28 785.00,1016.28
             785.00,1016.28 777.00,1015.70 777.00,1015.70
             777.00,1015.70 762.00,1012.61 762.00,1012.61
             718.07,1004.37 688.13,993.69 648.00,974.26
             648.00,974.26 624.00,962.13 624.00,962.13
             624.00,962.13 607.00,951.06 607.00,951.06
             607.00,951.06 597.00,945.30 597.00,945.30
             597.00,945.30 579.00,932.35 579.00,932.35
             561.38,918.77 543.53,904.57 528.58,888.04
             525.28,884.39 515.37,875.93 515.59,871.00
             515.71,868.26 518.24,865.86 520.02,864.00
             520.02,864.00 534.00,850.17 534.00,850.17
             534.00,850.17 566.00,822.20 566.00,822.20
             566.00,822.20 574.63,816.51 574.63,816.51
             574.63,816.51 579.21,811.28 579.21,811.28
             579.21,811.28 591.00,800.00 591.00,800.00
             578.40,807.96 554.03,831.71 541.00,842.87
             538.01,845.43 531.20,850.89 528.00,852.86
             526.54,853.76 524.32,855.11 522.64,853.92
             520.76,852.59 522.03,849.24 521.64,846.00
             521.22,842.54 519.94,840.96 520.34,837.00
             520.82,832.11 523.10,829.16 524.38,825.00
             524.38,825.00 526.53,816.00 526.53,816.00
             526.53,816.00 528.52,805.00 528.52,805.00
             528.52,805.00 532.71,793.00 532.71,793.00
             532.71,793.00 535.90,777.00 535.90,777.00
             535.90,777.00 539.70,766.00 539.70,766.00
             539.70,766.00 543.88,748.00 543.88,748.00
             543.88,748.00 547.36,736.00 547.36,736.00
             547.36,736.00 551.37,719.00 551.37,719.00
             551.37,719.00 556.42,703.00 556.42,703.00
             556.42,703.00 560.49,685.00 560.49,685.00
             560.49,685.00 565.85,667.00 565.85,667.00
             565.85,667.00 568.30,655.00 568.30,655.00
             568.30,655.00 572.62,644.00 572.62,644.00
             572.62,644.00 576.24,626.00 576.24,626.00
             576.24,626.00 579.37,617.00 579.37,617.00
             579.37,617.00 580.67,610.00 580.67,610.00
             580.67,610.00 583.25,601.00 583.25,601.00
             583.25,601.00 584.93,593.00 584.93,593.00
             584.93,593.00 592.21,572.00 592.21,572.00
             592.21,572.00 593.37,563.00 593.37,563.00
             593.37,563.00 597.52,548.00 597.52,548.00
             597.52,548.00 600.92,532.00 600.92,532.00
             600.92,532.00 606.26,516.00 606.26,516.00
             606.26,516.00 608.50,505.00 608.50,505.00
             608.50,505.00 612.08,494.00 612.08,494.00
             612.08,494.00 616.78,473.00 616.78,473.00
             616.78,473.00 620.57,462.00 620.57,462.00
             620.57,462.00 624.51,444.00 624.51,444.00
             624.51,444.00 630.12,426.00 630.12,426.00
             630.12,426.00 632.92,412.00 632.92,412.00
             632.92,412.00 638.25,396.00 638.25,396.00
             638.25,396.00 640.77,384.00 640.77,384.00
             640.77,384.00 644.07,375.00 644.07,375.00
             644.07,375.00 648.92,353.00 648.92,353.00
             648.92,353.00 654.52,335.00 654.52,335.00
             654.52,335.00 656.78,323.00 656.78,323.00
             656.78,323.00 662.40,306.00 662.40,306.00
             662.40,306.00 664.76,292.00 664.76,292.00
             664.76,292.00 670.11,276.00 670.11,276.00
             670.11,276.00 673.15,262.00 673.15,262.00
             673.15,262.00 677.52,248.00 677.52,248.00
             677.52,248.00 680.51,234.00 680.51,234.00
             680.51,234.00 689.00,213.00 689.00,213.00 Z
           M 725.00,177.00
           C 725.00,177.00 725.00,181.00 725.00,181.00
             725.00,181.00 725.00,177.00 725.00,177.00 Z
           M 712.00,212.00
           C 708.67,211.91 708.25,211.83 707.00,215.00
             707.00,215.00 712.00,212.00 712.00,212.00 Z
           M 1172.00,292.00
           C 1165.68,294.93 1159.04,301.36 1155.00,307.00
             1161.32,304.07 1167.96,297.64 1172.00,292.00 Z
           M 1148.00,313.00
           C 1141.94,315.59 1137.80,319.70 1134.00,325.00
             1139.74,322.41 1144.35,318.09 1148.00,313.00 Z
           M 1134.00,325.00
           C 1134.00,325.00 1133.00,325.00 1133.00,325.00
             1133.00,325.00 1134.00,326.00 1134.00,326.00
             1134.00,326.00 1134.00,325.00 1134.00,325.00 Z
           M 1133.00,326.00
           C 1133.00,326.00 1132.00,326.00 1132.00,326.00
             1132.00,326.00 1133.00,327.00 1133.00,327.00
             1133.00,327.00 1133.00,326.00 1133.00,326.00 Z
           M 1132.00,327.00
           C 1132.00,327.00 1131.00,327.00 1131.00,327.00
             1131.00,327.00 1132.00,328.00 1132.00,328.00
             1132.00,328.00 1132.00,327.00 1132.00,327.00 Z
           M 1131.00,328.00
           C 1131.00,328.00 1130.00,328.00 1130.00,328.00
             1130.00,328.00 1131.00,329.00 1131.00,329.00
             1131.00,329.00 1131.00,328.00 1131.00,328.00 Z
           M 1130.00,329.00
           C 1122.40,332.22 1109.29,344.58 1104.00,351.00
             1104.00,351.00 1115.00,343.79 1115.00,343.79
             1115.00,343.79 1122.23,339.31 1122.23,339.31
             1122.23,339.31 1130.00,329.00 1130.00,329.00 Z
           M 1104.00,351.00
           C 1104.00,351.00 1103.00,351.00 1103.00,351.00
             1103.00,351.00 1104.00,352.00 1104.00,352.00
             1104.00,352.00 1104.00,351.00 1104.00,351.00 Z
           M 1103.00,352.00
           C 1103.00,352.00 1102.00,352.00 1102.00,352.00
             1102.00,352.00 1103.00,353.00 1103.00,353.00
             1103.00,353.00 1103.00,352.00 1103.00,352.00 Z
           M 1102.00,353.00
           C 1096.68,355.51 1094.41,358.80 1090.00,362.57
             1085.11,366.76 1078.12,371.42 1075.00,377.00
             1082.53,373.03 1098.36,360.34 1102.00,353.00 Z
           M 1125.00,366.33
           C 1105.15,371.27 1111.93,397.02 1131.00,393.67
             1143.79,391.43 1144.99,376.56 1141.15,371.34
             1137.77,366.76 1130.21,365.80 1125.00,366.33 Z
           M 1075.00,377.00
           C 1075.00,377.00 1074.00,377.00 1074.00,377.00
             1074.00,377.00 1075.00,378.00 1075.00,378.00
             1075.00,378.00 1075.00,377.00 1075.00,377.00 Z
           M 1073.00,378.00
           C 1059.14,385.97 1056.74,391.59 1046.00,400.79
             1038.35,407.34 1032.55,408.65 1027.00,419.00
             1034.90,418.86 1033.96,423.03 1040.00,424.57
             1046.19,426.14 1051.10,421.18 1049.57,415.00
             1048.73,411.63 1046.11,409.39 1045.90,407.00
             1045.69,404.66 1047.43,402.69 1049.06,401.19
             1057.74,393.44 1062.27,407.28 1070.81,401.19
             1077.64,396.19 1071.08,387.37 1070.81,385.00
             1070.65,382.88 1072.22,380.01 1073.00,378.00 Z
           M 1084.00,405.43
           C 1070.86,410.66 1078.06,426.82 1090.00,423.57
             1097.35,421.57 1098.83,412.10 1093.72,407.43
             1090.82,404.77 1087.60,404.92 1084.00,405.43 Z
           M 1021.00,424.00
           C 1021.00,424.00 1020.00,424.00 1020.00,424.00
             1020.00,424.00 1021.00,425.00 1021.00,425.00
             1021.00,425.00 1021.00,424.00 1021.00,424.00 Z
           M 1020.00,425.00
           C 1020.00,425.00 1019.00,425.00 1019.00,425.00
             1019.00,425.00 1020.00,426.00 1020.00,426.00
             1020.00,426.00 1020.00,425.00 1020.00,425.00 Z
           M 1019.00,426.00
           C 1019.00,426.00 1018.00,426.00 1018.00,426.00
             1018.00,426.00 1019.00,427.00 1019.00,427.00
             1019.00,427.00 1019.00,426.00 1019.00,426.00 Z
           M 1059.00,426.81
           C 1046.34,428.12 1049.02,443.89 1059.00,443.89
             1068.14,443.89 1071.19,428.99 1059.00,426.81 Z
           M 1016.00,428.00
           C 1016.00,428.00 1015.00,428.00 1015.00,428.00
             1015.00,428.00 1016.00,429.00 1016.00,429.00
             1016.00,429.00 1016.00,428.00 1016.00,428.00 Z
           M 1015.00,429.00
           C 1015.00,429.00 1014.00,429.00 1014.00,429.00
             1014.00,429.00 1015.00,430.00 1015.00,430.00
             1015.00,430.00 1015.00,429.00 1015.00,429.00 Z
           M 1014.00,430.00
           C 1014.00,430.00 1013.00,430.00 1013.00,430.00
             1013.00,430.00 1014.00,431.00 1014.00,431.00
             1014.00,431.00 1014.00,430.00 1014.00,430.00 Z
           M 1013.00,431.00
           C 1013.00,431.00 1012.00,431.00 1012.00,431.00
             1012.00,431.00 1013.00,432.00 1013.00,432.00
             1013.00,432.00 1013.00,431.00 1013.00,431.00 Z
           M 1010.00,433.00
           C 1003.79,436.94 995.26,444.07 991.00,450.00
             997.32,447.32 1007.06,439.16 1010.00,433.00 Z
           M 1105.00,443.39
           C 1090.45,448.13 1097.04,466.98 1112.00,463.61
             1119.75,461.86 1123.43,452.37 1117.57,446.42
             1114.30,443.09 1109.32,442.84 1105.00,443.39 Z
           M 1165.00,443.34
           C 1146.35,448.34 1148.62,471.06 1166.00,472.80
             1176.32,473.83 1187.38,463.70 1183.26,453.00
             1180.58,446.03 1171.91,442.70 1165.00,443.34 Z
           M 991.00,450.00
           C 991.00,450.00 990.00,450.00 990.00,450.00
             990.00,450.00 991.00,451.00 991.00,451.00
             991.00,451.00 991.00,450.00 991.00,450.00 Z
           M 990.00,451.00
           C 990.00,451.00 989.00,451.00 989.00,451.00
             989.00,451.00 990.00,452.00 990.00,452.00
             990.00,452.00 990.00,451.00 990.00,451.00 Z
           M 989.00,452.00
           C 989.00,452.00 988.00,452.00 988.00,452.00
             988.00,452.00 989.00,453.00 989.00,453.00
             989.00,453.00 989.00,452.00 989.00,452.00 Z
           M 985.00,456.00
           C 985.00,456.00 984.00,456.00 984.00,456.00
             984.00,456.00 985.00,457.00 985.00,457.00
             985.00,457.00 985.00,456.00 985.00,456.00 Z
           M 984.00,457.00
           C 977.81,459.64 967.99,466.97 965.00,473.00
             970.73,471.05 980.20,461.88 984.00,457.00 Z
           M 1069.00,459.41
           C 1056.20,463.49 1058.83,478.16 1070.00,479.63
             1085.63,481.69 1086.46,457.93 1069.00,459.41 Z
           M 965.00,473.00
           C 965.00,473.00 964.00,473.00 964.00,473.00
             964.00,473.00 965.00,474.00 965.00,474.00
             965.00,474.00 965.00,473.00 965.00,473.00 Z
           M 961.00,477.00
           C 961.00,477.00 957.00,480.00 957.00,480.00
             957.00,480.00 961.00,477.00 961.00,477.00 Z
           M 1121.00,477.74
           C 1103.44,479.20 1105.82,502.17 1121.00,502.52
             1130.07,502.73 1137.31,491.85 1131.28,483.04
             1128.55,479.07 1125.51,478.17 1121.00,477.74 Z
           M 957.00,480.00
           C 957.00,480.00 956.00,480.00 956.00,480.00
             956.00,480.00 957.00,481.00 957.00,481.00
             957.00,481.00 957.00,480.00 957.00,480.00 Z
           M 956.00,481.00
           C 956.00,481.00 955.00,481.00 955.00,481.00
             955.00,481.00 956.00,482.00 956.00,482.00
             956.00,482.00 956.00,481.00 956.00,481.00 Z
           M 952.00,484.00
           C 952.00,484.00 943.00,492.00 943.00,492.00
             947.63,490.02 949.73,488.58 952.00,484.00 Z
           M 943.00,492.00
           C 943.00,492.00 942.00,492.00 942.00,492.00
             942.00,492.00 943.00,493.00 943.00,493.00
             943.00,493.00 943.00,492.00 943.00,492.00 Z
           M 1080.00,492.41
           C 1065.05,497.18 1071.48,515.84 1084.00,513.64
             1097.48,511.28 1096.15,490.95 1080.00,492.41 Z
           M 942.00,493.00
           C 942.00,493.00 941.00,493.00 941.00,493.00
             941.00,493.00 942.00,494.00 942.00,494.00
             942.00,494.00 942.00,493.00 942.00,493.00 Z
           M 941.00,494.00
           C 941.00,494.00 940.00,494.00 940.00,494.00
             940.00,494.00 941.00,495.00 941.00,495.00
             941.00,495.00 941.00,494.00 941.00,494.00 Z
           M 940.00,495.00
           C 940.00,495.00 939.00,495.00 939.00,495.00
             939.00,495.00 940.00,496.00 940.00,496.00
             940.00,496.00 940.00,495.00 940.00,495.00 Z
           M 939.00,496.00
           C 931.43,498.41 925.88,504.17 920.00,509.28
             920.00,509.28 891.00,534.84 891.00,534.84
             891.00,534.84 858.00,563.29 858.00,563.29
             858.00,563.29 799.00,615.00 799.00,615.00
             799.00,615.00 768.00,642.02 768.00,642.02
             762.55,647.11 757.80,649.84 755.00,656.80
             755.00,656.80 760.00,656.80 760.00,656.80
             760.00,656.80 780.00,672.51 780.00,672.51
             780.00,672.51 812.00,687.55 812.00,687.55
             812.00,687.55 823.00,690.11 823.00,690.11
             823.00,690.11 840.00,692.04 840.00,692.04
             840.00,692.04 848.00,692.82 848.00,692.82
             848.00,692.82 855.00,692.09 855.00,692.09
             855.00,692.09 883.00,687.01 883.00,687.01
             883.00,687.01 890.00,685.29 890.00,685.29
             890.00,685.29 899.00,680.26 899.00,680.26
             899.00,680.26 922.00,665.49 922.00,665.49
             922.00,665.49 928.49,660.62 928.49,660.62
             928.49,660.62 946.19,637.00 946.19,637.00
             946.19,637.00 952.06,628.00 952.06,628.00
             952.06,628.00 962.77,594.00 962.77,594.00
             962.77,594.00 962.77,574.00 962.77,574.00
             962.77,574.00 961.28,555.00 961.28,555.00
             961.28,555.00 958.23,544.00 958.23,544.00
             958.23,544.00 949.33,521.00 949.33,521.00
             949.33,521.00 937.54,501.00 937.54,501.00
             937.54,501.00 939.00,496.00 939.00,496.00 Z
           M 1129.00,527.34
           C 1112.30,531.83 1117.49,554.93 1135.00,551.77
             1143.67,550.21 1147.55,539.19 1142.30,532.11
             1139.03,527.69 1134.11,526.86 1129.00,527.34 Z
           M 1091.00,536.34
           C 1075.01,540.26 1082.69,558.80 1095.00,556.57
             1102.52,555.21 1107.04,545.37 1101.49,539.42
             1098.75,536.47 1094.75,536.09 1091.00,536.34 Z
           M 1188.00,543.46
           C 1164.87,546.06 1168.78,578.06 1190.00,576.96
             1201.72,576.35 1208.58,562.62 1203.69,553.01
             1200.87,547.49 1193.98,543.86 1188.00,543.46 Z
           M 1132.00,576.33
           C 1128.82,577.11 1125.94,577.99 1123.65,580.53
             1116.28,588.71 1125.37,602.31 1138.00,600.50
             1149.97,598.77 1154.10,587.44 1147.44,580.39
             1143.34,576.03 1137.55,575.71 1132.00,576.33 Z
           M 1098.00,577.38
           C 1081.92,581.81 1087.23,602.22 1102.00,600.44
             1112.46,599.18 1113.93,587.86 1109.85,582.21
             1107.08,578.36 1102.48,577.22 1098.00,577.38 Z
           M 1102.00,633.42
           C 1098.56,634.15 1095.86,635.04 1093.74,638.11
             1088.40,645.83 1095.34,654.70 1104.00,653.80
             1118.61,652.28 1117.95,633.68 1102.00,633.42 Z
           M 1127.00,633.43
           C 1113.88,638.64 1116.79,653.55 1129.00,655.38
             1139.85,657.00 1147.77,643.09 1138.78,635.65
             1135.32,632.79 1131.18,632.81 1127.00,633.43 Z
           M 744.00,666.00
           C 744.00,666.00 743.00,666.00 743.00,666.00
             743.00,666.00 744.00,667.00 744.00,667.00
             744.00,667.00 744.00,666.00 744.00,666.00 Z
           M 743.00,667.00
           C 737.86,669.32 734.32,672.47 731.00,677.00
             737.01,675.00 739.49,672.12 743.00,667.00 Z
           M 1108.00,689.00
           C 1109.78,693.52 1112.11,696.83 1117.00,698.35
             1124.16,700.57 1132.91,696.27 1132.91,688.00
             1132.91,680.98 1126.67,676.52 1120.00,677.37
             1115.27,677.97 1111.95,681.21 1109.10,680.48
             1106.77,679.89 1105.26,676.87 1103.63,675.22
             1099.98,671.53 1094.81,670.18 1090.04,672.57
             1081.89,676.65 1081.90,689.76 1091.00,693.26
             1097.51,695.77 1102.33,691.16 1108.00,689.00 Z
           M 1169.00,674.34
           C 1152.18,678.88 1155.49,700.67 1171.00,702.63
             1182.50,704.09 1191.26,690.98 1185.15,681.02
             1181.37,674.86 1175.66,673.59 1169.00,674.34 Z
           M 731.00,677.00
           C 731.00,677.00 730.00,677.00 730.00,677.00
             730.00,677.00 731.00,678.00 731.00,678.00
             731.00,678.00 731.00,677.00 731.00,677.00 Z
           M 723.00,684.00
           C 723.00,684.00 722.00,684.00 722.00,684.00
             722.00,684.00 723.00,685.00 723.00,685.00
             723.00,685.00 723.00,684.00 723.00,684.00 Z
           M 722.00,685.00
           C 722.00,685.00 721.00,685.00 721.00,685.00
             721.00,685.00 722.00,686.00 722.00,686.00
             722.00,686.00 722.00,685.00 722.00,685.00 Z
           M 720.00,687.00
           C 720.00,687.00 719.00,687.00 719.00,687.00
             719.00,687.00 720.00,688.00 720.00,688.00
             720.00,688.00 720.00,687.00 720.00,687.00 Z
           M 719.00,688.00
           C 712.67,690.70 697.04,703.97 694.00,710.00
             700.82,706.34 714.45,694.35 719.00,688.00 Z
           M 694.00,710.00
           C 688.93,712.38 684.35,716.53 681.00,721.00
             686.98,718.66 690.31,715.15 694.00,710.00 Z
           M 1073.00,715.40
           C 1060.03,719.60 1062.41,734.11 1074.00,735.63
             1086.58,737.29 1092.44,721.09 1080.00,716.01
             1077.35,714.92 1075.72,715.09 1073.00,715.40 Z
           M 681.00,721.00
           C 681.00,721.00 680.00,721.00 680.00,721.00
             680.00,721.00 681.00,722.00 681.00,722.00
             681.00,722.00 681.00,721.00 681.00,721.00 Z
           M 680.00,722.00
           C 675.18,724.24 671.39,727.19 669.00,732.00
             674.12,729.01 676.53,726.83 680.00,722.00 Z
           M 1102.00,729.42
           C 1098.63,730.14 1095.89,730.97 1093.94,734.11
             1089.49,741.25 1096.58,748.39 1104.00,747.77
             1116.95,746.70 1116.65,729.66 1102.00,729.42 Z
           M 669.00,732.00
           C 669.00,732.00 668.00,732.00 668.00,732.00
             668.00,732.00 669.00,733.00 669.00,733.00
             669.00,733.00 669.00,732.00 669.00,732.00 Z
           M 667.00,733.00
           C 667.00,733.00 666.00,733.00 666.00,733.00
             666.00,733.00 667.00,734.00 667.00,734.00
             667.00,734.00 667.00,733.00 667.00,733.00 Z
           M 666.00,734.00
           C 666.00,734.00 665.00,734.00 665.00,734.00
             665.00,734.00 666.00,735.00 666.00,735.00
             666.00,735.00 666.00,734.00 666.00,734.00 Z
           M 665.00,735.00
           C 665.00,735.00 664.00,735.00 664.00,735.00
             664.00,735.00 665.00,736.00 665.00,736.00
             665.00,736.00 665.00,735.00 665.00,735.00 Z
           M 664.00,736.00
           C 664.00,736.00 663.00,736.00 663.00,736.00
             663.00,736.00 664.00,737.00 664.00,737.00
             664.00,737.00 664.00,736.00 664.00,736.00 Z
           M 663.00,737.00
           C 663.00,737.00 661.00,737.00 661.00,737.00
             661.00,737.00 660.00,740.00 660.00,740.00
             660.00,740.00 663.00,737.00 663.00,737.00 Z
           M 657.00,742.00
           C 657.00,742.00 656.00,742.00 656.00,742.00
             656.00,742.00 657.00,743.00 657.00,743.00
             657.00,743.00 657.00,742.00 657.00,742.00 Z
           M 656.00,743.00
           C 656.00,743.00 655.00,743.00 655.00,743.00
             655.00,743.00 656.00,744.00 656.00,744.00
             656.00,744.00 656.00,743.00 656.00,743.00 Z
           M 655.00,744.00
           C 655.00,744.00 649.00,749.00 649.00,749.00
             649.00,749.00 655.00,744.00 655.00,744.00 Z
           M 1047.00,745.42
           C 1031.11,748.81 1036.05,767.91 1049.00,766.77
             1056.28,766.14 1061.58,757.82 1057.98,751.04
             1055.76,746.88 1051.38,745.49 1047.00,745.42 Z
           M 649.00,749.00
           C 649.00,749.00 648.00,749.00 648.00,749.00
             648.00,749.00 649.00,750.00 649.00,750.00
             649.00,750.00 649.00,749.00 649.00,749.00 Z
           M 668.00,749.43
           C 655.45,754.51 662.63,769.90 673.00,767.39
             680.04,765.69 681.60,757.03 677.49,752.23
             674.78,749.06 671.80,748.95 668.00,749.43 Z
           M 648.00,750.00
           C 641.02,752.98 638.52,756.97 633.00,761.70
             628.11,765.89 624.92,766.88 622.00,773.00
             628.59,769.15 643.61,756.11 648.00,750.00 Z
           M 653.00,767.51
           C 639.07,770.07 643.86,787.46 655.00,785.76
             664.10,784.37 666.89,768.54 653.00,767.51 Z
           M 687.02,768.43
           C 675.84,773.13 682.76,786.99 692.98,783.88
             698.56,782.19 700.58,775.75 696.57,771.23
             693.79,768.09 690.85,767.94 687.02,768.43 Z
           M 1068.00,768.33
           C 1065.47,768.96 1063.34,769.44 1061.43,771.42
             1055.94,777.09 1060.49,788.45 1072.00,786.79
             1080.81,785.51 1083.42,776.05 1077.47,770.65
             1074.59,768.04 1071.61,768.02 1068.00,768.33 Z
           M 622.00,773.00
           C 622.00,773.00 621.00,773.00 621.00,773.00
             621.00,773.00 622.00,774.00 622.00,774.00
             622.00,774.00 622.00,773.00 622.00,773.00 Z
           M 1117.00,773.34
           C 1095.87,779.03 1103.39,805.99 1123.00,802.53
             1126.33,801.94 1131.21,800.17 1133.49,797.61
             1139.38,791.04 1135.88,771.32 1117.00,773.34 Z
           M 620.00,774.00
           C 620.00,774.00 614.00,780.00 614.00,780.00
             614.00,780.00 620.00,774.00 620.00,774.00 Z
           M 611.00,782.00
           C 611.00,782.00 610.00,782.00 610.00,782.00
             610.00,782.00 611.00,783.00 611.00,783.00
             611.00,783.00 611.00,782.00 611.00,782.00 Z
           M 610.00,783.00
           C 605.42,785.17 603.92,786.94 601.00,791.00
             605.98,789.15 608.15,788.14 610.00,783.00 Z
           M 996.00,784.42
           C 979.96,787.85 986.59,806.37 998.00,805.48
             1006.22,804.83 1010.36,794.57 1005.30,788.22
             1002.83,785.12 999.72,784.48 996.00,784.42 Z
           M 673.00,787.41
           C 659.44,791.74 665.01,807.81 677.00,805.64
             684.96,804.20 687.13,794.53 681.61,789.51
             678.99,787.13 676.27,787.11 673.00,787.41 Z
           M 601.00,791.00
           C 601.00,791.00 600.00,791.00 600.00,791.00
             600.00,791.00 601.00,792.00 601.00,792.00
             601.00,792.00 601.00,791.00 601.00,791.00 Z
           M 718.00,812.00
           C 724.43,809.83 730.98,807.31 729.85,799.00
             728.89,791.95 720.65,788.50 715.28,793.43
             709.97,798.29 713.58,804.59 711.89,807.73
             710.08,811.08 701.37,811.69 701.37,820.00
             701.37,828.05 711.71,832.93 717.30,826.58
             721.06,822.32 719.39,816.80 718.00,812.00 Z
           M 600.00,792.00
           C 600.00,792.00 599.00,792.00 599.00,792.00
             599.00,792.00 600.00,793.00 600.00,793.00
             600.00,793.00 600.00,792.00 600.00,792.00 Z
           M 592.00,799.00
           C 592.00,799.00 591.00,799.00 591.00,799.00
             591.00,799.00 592.00,800.00 592.00,800.00
             592.00,800.00 592.00,799.00 592.00,799.00 Z
           M 744.00,800.44
           C 731.79,805.30 737.00,821.80 748.00,819.45
             760.94,816.70 758.83,798.86 744.00,800.44 Z
           M 964.00,802.38
           C 948.41,806.68 956.47,825.13 968.00,822.53
             975.26,820.89 978.36,810.90 973.35,805.42
             970.81,802.64 967.51,802.25 964.00,802.38 Z
           M 1010.00,810.42
           C 994.64,813.72 998.78,832.02 1013.00,830.88
             1020.63,830.27 1025.95,821.86 1021.26,815.11
             1018.62,811.30 1014.31,810.42 1010.00,810.42 Z
           M 621.00,813.33
           C 614.12,814.98 609.47,818.08 606.97,825.00
             602.39,837.68 611.31,850.07 625.00,847.67
             636.56,845.65 638.70,837.16 638.45,827.00
             638.33,822.55 639.23,820.88 635.77,817.11
             631.50,812.44 626.79,812.69 621.00,813.33 Z
           M 791.02,814.47
           C 779.52,819.02 784.27,833.84 794.00,831.67
             802.76,829.71 803.27,813.90 791.02,814.47 Z
           M 821.00,818.43
           C 817.07,819.44 814.38,820.93 812.90,825.00
             810.73,831.01 815.34,838.22 822.00,837.67
             832.38,836.82 835.54,818.71 821.00,818.43 Z
           M 904.00,818.43
           C 889.19,823.01 895.39,840.86 908.00,838.64
             920.24,836.50 919.31,817.58 904.00,818.43 Z
           M 738.98,821.86
           C 734.81,821.81 731.52,822.35 729.01,826.11
             724.64,832.63 728.43,844.10 738.00,842.62
             749.40,840.86 749.11,825.03 738.98,821.86 Z
           M 873.00,821.37
           C 857.54,825.00 862.83,844.46 876.00,842.77
             883.65,841.79 888.85,832.74 884.26,826.11
             881.59,822.24 877.40,821.23 873.00,821.37 Z
           M 973.00,826.43
           C 958.53,832.19 966.60,849.40 979.00,846.43
             986.79,844.57 990.49,835.45 984.58,829.39
             981.32,826.05 977.32,825.82 973.00,826.43 Z
           M 786.00,840.43
           C 772.97,845.72 781.59,861.49 793.00,858.18
             802.19,855.52 800.85,845.71 797.57,842.43
             794.58,839.44 789.82,839.85 786.00,840.43 Z
           M 818.00,842.42
           C 804.20,847.36 810.26,864.41 823.00,861.60
             834.78,859.01 831.97,840.82 818.00,842.42 Z
           M 914.00,844.51
           C 898.88,847.27 902.30,866.49 916.00,865.72
             923.14,865.32 927.88,857.45 924.69,851.02
             922.48,846.58 918.68,844.86 914.00,844.51 Z
           M 878.00,850.43
           C 862.98,855.04 869.12,872.89 881.00,871.30
             893.66,869.60 893.12,849.64 878.00,850.43 Z
           M 1019.00,855.42
           C 1001.52,861.57 1006.75,884.97 1023.00,886.66
             1039.12,888.34 1045.00,868.05 1034.67,858.53
             1030.23,854.44 1024.60,854.60 1019.00,855.42 Z
           M 692.00,860.34
           C 683.38,861.82 677.39,864.99 674.79,874.00
             671.75,884.52 678.58,898.03 691.00,896.82
             712.98,894.70 710.81,860.29 692.00,860.34 Z
           M 785.00,896.34
           C 777.41,898.11 771.03,902.69 770.20,911.00
             769.25,920.45 776.98,930.30 787.00,928.67
             808.10,925.25 802.29,895.38 785.00,896.34 Z
           M 905.00,899.37
           C 900.01,900.52 894.95,903.26 892.57,908.04
             887.08,919.03 897.42,931.24 909.00,929.78
             919.65,928.43 927.09,916.70 920.99,907.04
             917.77,901.94 910.83,899.19 905.00,899.37 Z" />
</svg>
