<?xml version="1.0" standalone="no"?>
<!DOCTYPE svg PUBLIC "-//W3C//DTD SVG 20010904//EN"
 "http://www.w3.org/TR/2001/REC-SVG-20010904/DTD/svg10.dtd">
<svg version="1.0" xmlns="http://www.w3.org/2000/svg"
 width="1600.000000pt" height="1200.000000pt" viewBox="0 0 1600.000000 1200.000000"
 preserveAspectRatio="xMidYMid meet">
<metadata>
Created by potrace 1.16, written by Peter Selinger 2001-2019
</metadata>
<g transform="translate(0.000000,1200.000000) scale(0.100000,-0.100000)"
fill="#000000" stroke="none">
<path d="M0 6000 l0 -6000 8000 0 8000 0 0 6000 0 6000 -8000 0 -8000 0 0
-6000z m7062 4589 c24 -7 45 -13 48 -14 56 -18 140 -86 187 -152 27 -38 63
-142 63 -180 -1 -37 -15 -13 -25 42 -19 105 -102 212 -205 263 -50 24 -66 27
-165 27 -134 0 -180 -18 -265 -105 -68 -69 -100 -150 -100 -253 0 -136 81
-270 195 -323 28 -12 42 -23 33 -23 -22 -1 -88 30 -88 41 0 4 -5 8 -11 8 -6 0
-27 18 -47 40 -80 92 -114 204 -95 315 12 72 46 151 76 178 11 9 17 17 12 17
-4 0 10 14 31 30 22 17 46 36 54 43 57 47 215 71 302 46z m48 -59 c80 -41 137
-97 172 -168 30 -61 33 -75 33 -157 -1 -78 -4 -97 -29 -143 -75 -147 -231
-222 -383 -187 -154 36 -254 146 -278 307 -19 126 59 276 177 339 84 46 229
50 308 9z m413 -345 c136 -32 381 -90 492 -115 50 -12 124 -29 165 -40 41 -10
102 -24 135 -30 33 -7 64 -15 70 -18 5 -3 18 -7 30 -8 30 -4 68 -11 85 -18 8
-3 26 -8 40 -10 14 -3 43 -10 65 -15 91 -23 701 -167 765 -181 25 -5 100 -23
168 -40 68 -16 137 -32 155 -35 18 -3 46 -10 62 -15 17 -6 59 -17 95 -26 65
-15 79 -19 135 -30 17 -3 93 -21 170 -39 166 -40 354 -85 570 -135 50 -11 126
-29 170 -40 44 -11 130 -31 190 -45 61 -14 128 -30 149 -36 22 -6 49 -13 60
-15 52 -10 91 -18 241 -54 88 -21 175 -41 193 -45 17 -4 32 -10 32 -14 0 -9
-371 73 -735 164 -11 2 -137 32 -280 66 -143 34 -285 67 -315 74 -30 7 -97 23
-148 34 -99 23 -616 145 -892 211 -91 21 -205 48 -255 60 -49 11 -126 29 -170
40 -44 10 -159 37 -255 60 -96 23 -238 56 -315 75 -77 18 -192 45 -255 60
-135 31 -266 62 -441 104 -133 32 -255 59 -304 68 -42 7 -45 13 -6 13 17 0 78
-11 134 -25z m-128 -220 c28 -7 97 -27 155 -45 58 -18 125 -38 150 -46 25 -7
83 -24 130 -37 76 -22 246 -73 650 -196 69 -21 159 -48 200 -60 41 -13 104
-32 140 -43 59 -19 96 -21 380 -24 173 -2 349 -9 390 -15 83 -13 543 -123 575
-138 36 -17 -4 -12 -105 14 -54 14 -106 26 -116 28 -11 2 -37 9 -59 15 -202
60 -233 64 -635 77 l-385 12 -100 33 c-55 17 -125 38 -155 46 -30 8 -86 25
-125 37 -38 11 -72 22 -75 22 -10 2 -157 47 -195 59 -51 17 -180 56 -202 61
-10 3 -45 13 -78 24 -33 10 -87 26 -120 36 -33 9 -71 20 -85 25 -14 4 -45 13
-70 20 -25 7 -54 16 -65 20 -11 4 -40 13 -65 20 -25 7 -65 19 -89 26 -25 8
-53 14 -63 14 -10 0 -18 5 -18 10 0 6 -11 10 -25 10 -14 0 -25 5 -25 11 0 7 7
8 18 4 9 -3 40 -12 67 -20z m-121 -23 c-17 -15 -58 -40 -92 -57 -57 -28 -61
-32 -65 -70 -3 -22 -10 -60 -17 -85 -6 -25 -15 -65 -19 -90 -18 -102 -53 -254
-61 -270 -5 -10 -7 -19 -5 -22 4 -4 -10 -76 -34 -172 -5 -22 -8 -44 -5 -48 3
-4 1 -8 -3 -8 -5 0 -9 -8 -9 -17 -1 -18 -45 -223 -63 -293 -10 -37 -49 -221
-57 -267 -3 -15 -9 -44 -15 -63 -5 -19 -16 -66 -23 -105 -29 -145 -38 -191
-47 -225 -5 -19 -16 -69 -25 -110 -27 -130 -55 -253 -70 -315 -8 -33 -17 -73
-19 -90 -2 -16 -13 -70 -25 -120 -11 -49 -25 -114 -30 -143 -5 -29 -12 -57
-15 -63 -7 -11 -9 -19 -21 -106 -4 -29 -15 -61 -26 -73 -10 -11 -16 -20 -13
-20 6 0 -31 -58 -45 -70 -3 -3 -14 -22 -24 -42 -11 -21 -23 -38 -28 -38 -4 0
-8 -9 -8 -20 0 -10 -6 -23 -12 -27 -14 -9 -27 -28 -59 -90 -12 -23 -26 -40
-30 -37 -8 5 2 22 92 166 106 168 126 205 138 263 7 33 17 78 21 100 26 116
64 291 81 370 10 50 30 140 44 200 14 61 34 153 45 205 11 52 27 124 35 160 9
36 22 101 31 145 8 44 19 96 24 115 5 19 16 69 24 110 9 41 25 118 36 170 12
52 30 133 40 180 10 47 26 117 34 155 9 39 25 113 36 165 11 52 24 109 29 126
5 18 16 72 26 120 13 72 55 263 71 321 2 7 29 26 61 42 32 16 72 41 88 55 40
33 48 22 9 -12z m-429 -104 c-2 -7 -25 -92 -50 -188 -25 -96 -50 -188 -55
-205 -6 -16 -87 -320 -180 -675 -94 -355 -188 -710 -210 -790 -21 -80 -73
-275 -115 -435 -96 -359 -121 -456 -139 -520 -8 -27 -35 -129 -60 -225 -25
-96 -78 -294 -117 -440 -39 -146 -82 -308 -95 -360 -13 -52 -31 -117 -39 -145
-8 -27 -46 -169 -84 -315 -76 -288 -235 -886 -305 -1150 -25 -91 -63 -237 -86
-325 -23 -88 -48 -180 -55 -205 -7 -25 -34 -126 -59 -225 -51 -195 -72 -267
-89 -302 -17 -37 -3 -35 39 5 22 20 103 91 179 157 77 66 156 134 175 151 124
112 234 204 238 200 2 -3 -9 -17 -26 -31 -16 -14 -43 -37 -60 -52 -30 -28
-137 -122 -176 -156 -12 -10 -41 -36 -66 -57 -25 -21 -54 -47 -66 -57 -50 -43
-151 -131 -188 -165 -23 -21 -47 -38 -54 -38 -19 0 -27 31 -11 44 8 6 23 47
34 91 10 44 20 85 22 90 1 6 16 60 32 120 16 61 44 162 61 225 31 112 51 191
70 277 5 23 16 58 24 77 8 20 14 36 12 36 -2 0 5 30 15 67 16 57 112 423 124
473 2 8 8 30 14 48 5 18 10 33 9 35 0 1 6 22 13 47 7 25 14 50 15 55 5 16 115
438 119 455 2 8 15 53 28 100 13 47 36 130 50 185 41 155 89 339 91 350 2 6 9
30 16 55 17 57 12 38 60 225 42 162 68 261 124 465 2 8 9 33 14 55 19 72 101
379 117 435 8 30 17 62 19 70 2 8 14 53 26 100 25 99 36 142 80 305 18 66 38
145 45 175 7 30 29 111 48 180 41 147 87 317 93 344 2 10 11 44 20 75 18 61
61 226 74 281 12 51 96 363 120 445 11 39 27 97 34 130 8 33 25 101 39 150 13
50 37 136 52 193 15 56 31 102 36 102 5 0 6 -6 4 -12z m3802 -593 l382 -95
328 -1 c180 0 337 -4 348 -9 12 -5 -127 -8 -340 -6 -305 2 -368 5 -415 19 -59
19 -70 21 -140 36 -25 6 -162 39 -305 75 -142 36 -264 66 -270 66 -6 0 -28
-16 -48 -35 -20 -19 -37 -33 -37 -30 0 2 -10 -6 -23 -18 -45 -43 -146 -132
-178 -157 -18 -14 -55 -46 -81 -72 -27 -27 -66 -60 -86 -75 -20 -16 -54 -46
-74 -67 -21 -22 -38 -36 -38 -33 0 4 -18 -11 -40 -33 -22 -22 -40 -38 -40 -35
0 3 -18 -13 -40 -35 -22 -22 -40 -38 -40 -35 0 3 -20 -14 -44 -37 -65 -63
-106 -99 -156 -138 -25 -19 -58 -48 -75 -65 -17 -16 -54 -50 -84 -75 -29 -25
-69 -60 -87 -78 -19 -18 -34 -30 -34 -28 0 3 -20 -14 -44 -37 -68 -65 -116
-107 -116 -102 0 3 -8 -3 -19 -12 -40 -39 -158 -143 -184 -165 -16 -13 -48
-41 -70 -63 -23 -22 -62 -56 -87 -75 -25 -19 -59 -48 -77 -65 -17 -16 -59 -55
-93 -85 -34 -30 -72 -64 -84 -75 -11 -11 -41 -36 -66 -55 -24 -19 -74 -63
-109 -97 -36 -35 -69 -63 -73 -63 -3 0 -24 -17 -46 -37 -22 -21 -59 -54 -82
-73 -23 -19 -59 -51 -81 -70 -38 -35 -107 -96 -166 -147 -17 -16 -46 -39 -63
-53 -18 -14 -56 -47 -84 -75 -28 -27 -72 -66 -96 -85 -25 -19 -59 -49 -76 -65
-16 -17 -52 -48 -79 -70 -27 -22 -64 -53 -82 -70 -18 -16 -55 -50 -84 -75 -29
-25 -67 -60 -86 -78 -18 -18 -33 -31 -33 -28 0 6 -41 -28 -106 -90 -30 -28
-54 -49 -54 -47 0 2 -11 -6 -24 -19 -13 -13 -47 -43 -76 -68 -71 -61 -125
-108 -171 -150 -21 -19 -61 -55 -89 -80 -28 -25 -66 -58 -83 -75 -18 -16 -50
-43 -72 -60 -22 -16 -62 -51 -89 -77 -28 -27 -52 -48 -55 -48 -3 0 -37 -29
-75 -65 -38 -36 -78 -65 -89 -65 -14 0 0 19 55 73 41 39 90 83 108 97 19 14
50 41 71 60 20 19 56 51 80 70 23 19 48 41 55 48 7 6 18 12 24 12 6 0 8 5 5
10 -3 6 -2 10 2 10 5 0 34 24 65 54 32 29 59 52 61 50 2 -3 21 14 41 37 20 23
36 39 36 35 0 -3 8 2 19 12 37 35 147 133 171 153 32 26 116 98 145 124 13 11
37 32 54 48 17 15 36 27 42 27 5 0 7 5 4 10 -3 6 -2 10 2 10 5 0 31 20 58 45
28 25 62 56 78 70 15 14 32 25 38 25 5 0 7 5 4 10 -3 6 -2 10 2 10 10 0 75 54
140 116 24 23 43 39 43 37 0 -4 55 44 115 102 23 22 45 41 48 42 7 3 44 35
108 93 21 19 57 51 80 70 23 19 56 49 73 65 17 17 47 42 66 56 19 15 62 52 95
83 33 32 74 68 90 80 17 13 44 36 61 52 18 16 56 49 85 74 29 25 58 51 65 58
7 6 18 12 25 12 7 0 9 3 6 6 -3 4 6 16 21 27 15 11 41 33 57 48 17 16 49 46
73 69 24 22 47 40 50 40 4 0 43 34 87 75 43 41 81 75 83 75 2 0 9 6 16 13 7 6
39 35 71 62 32 28 68 59 80 70 13 11 37 32 54 48 17 15 36 27 43 27 6 0 8 3 5
6 -3 4 6 16 21 27 15 11 41 33 57 48 100 92 119 109 124 109 3 0 22 15 41 33
19 18 73 66 120 107 46 41 94 84 106 95 12 11 45 40 74 65 29 25 66 56 81 70
55 50 125 109 163 139 21 17 35 31 30 31 -5 0 5 9 21 19 17 10 46 34 65 52 20
19 56 51 80 73 74 64 171 149 215 188 45 41 77 56 115 57 13 1 197 -42 407
-94z m1158 -85 c10 -11 14 -20 9 -20 -12 1 -44 25 -44 34 0 12 17 6 35 -14z
m46 -40 c6 0 8 -4 5 -9 -3 -5 1 -12 10 -15 8 -3 14 -14 13 -23 -3 -31 1 -38
12 -23 9 13 10 13 6 0 -7 -26 -32 -16 -38 15 -4 19 -7 23 -8 10 -1 -17 -5 -15
-22 13 -26 39 -38 40 -76 5 -27 -25 -119 -106 -177 -156 -57 -49 -121 -105
-149 -130 -18 -16 -54 -48 -81 -70 -27 -23 -65 -57 -84 -74 -30 -29 -52 -41
-52 -30 0 9 200 177 209 177 6 0 11 4 11 9 0 5 78 78 173 161 151 133 175 150
200 146 21 -4 27 -2 28 12 1 16 2 16 6 0 2 -10 9 -18 14 -18z m-177 -52 c-26
-24 -52 -42 -56 -40 -4 1 -8 -2 -8 -7 0 -5 -55 -57 -122 -116 -68 -59 -152
-133 -188 -165 -36 -31 -81 -70 -100 -86 -19 -16 -39 -34 -45 -40 -33 -35
-164 -144 -174 -144 -6 0 -11 -4 -11 -9 0 -5 -71 -71 -157 -147 -87 -76 -169
-150 -183 -164 -14 -14 -43 -39 -65 -55 -21 -17 -47 -37 -55 -45 -28 -26 -163
-145 -205 -181 -22 -19 -96 -83 -166 -144 -69 -60 -139 -121 -155 -134 -35
-28 -174 -152 -224 -198 -19 -18 -43 -36 -52 -39 -10 -3 -18 -9 -18 -13 0 -4
-77 -75 -172 -157 -94 -82 -183 -160 -197 -172 -14 -13 -53 -47 -86 -75 -151
-131 -172 -150 -200 -176 -16 -16 -86 -77 -155 -136 -199 -172 -252 -218 -280
-245 -23 -21 -111 -99 -170 -150 -10 -8 -34 -28 -54 -44 -21 -16 -51 -43 -69
-61 -18 -17 -86 -77 -152 -134 -66 -56 -131 -112 -145 -125 -89 -81 -132 -116
-141 -116 -6 0 11 19 37 43 27 23 64 56 83 74 18 18 52 47 74 65 22 18 51 42
63 53 94 82 119 104 154 138 22 20 42 37 44 37 4 0 75 63 137 122 16 14 29 25
29 23 0 -2 18 14 39 35 22 22 42 40 46 40 3 0 24 17 47 38 51 46 89 80 125
111 15 13 47 40 69 60 23 20 66 56 95 81 30 25 74 64 98 88 24 23 46 42 48 42
3 0 42 34 93 80 15 14 51 45 80 70 29 25 70 61 91 80 33 31 66 59 135 117 39
33 141 122 334 293 53 47 122 108 154 135 32 28 73 64 91 80 17 17 44 39 57
50 44 35 150 128 197 173 24 23 47 42 50 42 3 0 27 19 52 43 85 78 191 172
211 187 11 8 32 26 47 40 15 14 56 50 91 80 35 30 72 63 84 74 12 10 43 37 69
60 27 22 63 54 80 69 18 16 54 48 81 70 27 23 63 56 81 72 18 17 54 48 79 70
26 22 63 55 84 73 20 19 54 48 75 65 21 18 53 46 71 62 19 17 57 50 86 75 29
25 58 50 65 57 44 42 108 93 117 93 6 0 -11 -19 -38 -42z m243 -30 c-3 -8 -6
-5 -6 6 -1 11 2 17 5 13 3 -3 4 -12 1 -19z m42 -53 c3 -17 1 -17 -12 -6 -9 7
-21 10 -26 6 -7 -4 -8 0 -5 10 9 21 38 15 43 -10z m20 -39 c15 -8 20 -16 13
-20 -12 -7 -52 13 -52 26 0 11 11 9 39 -6z m51 -47 c0 -4 -7 -6 -16 -2 -13 5
-15 2 -9 -18 7 -21 6 -22 -9 -10 -19 16 -21 38 -3 44 15 5 37 -3 37 -14z m16
-28 c-4 -5 0 -12 6 -14 8 -4 7 -6 -3 -6 -9 -1 -19 6 -23 14 -3 9 0 15 10 15 8
0 13 -4 10 -9z m51 -68 c16 -13 27 -83 12 -83 -5 0 -9 15 -9 34 0 18 -7 39
-15 46 -8 7 -14 22 -14 34 1 20 2 20 6 1 3 -11 11 -25 20 -32z m-47 27 c13 -8
13 -10 -2 -10 -9 0 -20 5 -23 10 -8 13 5 13 25 0z m20 -40 c0 -5 -4 -10 -10
-10 -5 0 -10 5 -10 10 0 6 5 10 10 10 6 0 10 -4 10 -10z m17 -32 c-3 -8 -6 -5
-6 6 -1 11 2 17 5 13 3 -3 4 -12 1 -19z m63 -71 c4 -5 6 4 4 20 l-4 28 10 -30
c5 -16 6 -33 1 -38 -13 -13 -42 39 -33 60 6 15 7 14 10 -7 2 -14 7 -29 12 -33z
m46 -42 c-3 -9 1 -18 9 -21 16 -7 21 -44 5 -44 -13 0 -30 34 -30 59 0 12 5 21
11 21 6 0 8 -7 5 -15z m-947 -64 c20 -21 43 -48 51 -61 8 -12 30 -38 48 -58
17 -20 32 -40 32 -44 0 -5 13 -23 30 -41 16 -18 30 -37 30 -44 0 -6 4 -13 9
-15 5 -1 30 -37 57 -78 26 -41 52 -78 57 -81 5 -3 8 -9 8 -13 -1 -3 23 -48 53
-99 93 -160 218 -431 275 -597 18 -52 37 -104 41 -115 5 -11 11 -31 14 -45 4
-14 13 -50 22 -80 38 -134 46 -168 75 -315 108 -547 73 -1212 -92 -1740 -28
-90 -41 -129 -74 -215 -20 -52 -39 -105 -42 -117 -3 -13 -9 -23 -13 -23 -7 0
-21 -49 -19 -66 0 -4 -3 -10 -8 -13 -4 -3 -44 -76 -87 -161 -43 -85 -90 -174
-105 -198 -60 -98 -154 -237 -162 -240 -5 -2 -9 -8 -9 -14 0 -6 -16 -30 -35
-53 -19 -23 -31 -45 -28 -49 4 -3 2 -6 -4 -6 -6 0 -30 -26 -54 -57 -24 -32
-48 -63 -54 -69 -5 -6 -39 -44 -75 -84 -91 -103 -256 -265 -330 -325 -14 -11
-50 -40 -80 -65 -30 -25 -59 -48 -65 -53 -5 -4 -21 -17 -35 -28 -14 -12 -45
-35 -70 -52 -25 -17 -47 -34 -50 -37 -3 -4 -21 -15 -40 -25 -19 -10 -37 -21
-40 -25 -19 -27 -399 -233 -545 -295 -16 -7 -41 -18 -55 -24 -184 -79 -513
-176 -730 -216 -233 -42 -330 -49 -665 -49 -328 0 -340 0 -585 39 -24 4 -174
32 -215 40 -77 16 -123 27 -140 35 -11 4 -56 18 -100 30 -44 12 -93 28 -110
35 -16 8 -46 18 -65 24 -46 13 -156 55 -216 82 -51 22 -180 82 -224 102 -14 7
-27 14 -30 17 -3 3 -23 14 -45 25 -22 11 -42 22 -45 25 -3 3 -18 11 -35 19
-16 7 -60 33 -97 57 -37 24 -70 44 -74 44 -3 0 -23 13 -44 30 -21 17 -43 30
-49 30 -6 0 -11 5 -11 10 0 6 -5 10 -12 10 -6 0 -18 7 -27 15 -9 8 -54 44
-101 80 -47 36 -92 71 -101 77 -102 79 -409 381 -409 402 0 7 74 -60 164 -148
146 -144 205 -198 268 -246 11 -8 30 -24 41 -35 12 -11 39 -31 59 -45 21 -14
38 -28 38 -32 0 -5 4 -8 10 -8 5 0 50 -29 99 -65 48 -36 92 -65 95 -65 4 0 22
-11 40 -25 18 -14 38 -25 44 -25 6 0 17 -6 24 -12 14 -13 18 -16 98 -59 25
-13 48 -28 51 -32 3 -5 9 -8 13 -8 10 1 81 -33 84 -41 2 -5 9 -8 16 -8 6 0 45
-16 86 -36 41 -20 111 -49 155 -66 44 -16 89 -33 100 -38 104 -45 380 -122
565 -158 162 -31 177 -34 345 -49 142 -13 657 -9 770 5 95 12 361 62 435 81
144 37 339 96 385 116 17 7 60 25 98 39 65 24 151 63 287 129 77 38 253 137
260 147 3 4 22 15 43 25 20 9 37 21 37 26 0 5 5 9 10 9 6 0 28 12 49 27 21 16
49 35 61 43 46 31 227 172 272 213 170 152 378 369 463 485 6 7 18 21 28 30 9
9 17 20 17 25 0 4 5 13 10 20 6 7 24 27 40 46 16 19 32 43 36 53 3 10 9 18 13
18 4 0 13 11 19 25 7 14 16 31 22 38 38 45 159 255 222 387 41 84 59 125 88
195 5 11 15 36 24 55 56 131 132 370 170 540 44 194 73 400 87 625 10 161 9
225 -4 420 -9 127 -21 255 -27 285 -21 118 -52 286 -55 295 -1 6 -6 29 -10 53
-4 23 -10 42 -14 42 -4 0 -8 11 -9 24 -1 21 -44 168 -59 206 -4 8 -7 17 -8 20
-14 53 -64 186 -97 260 -16 36 -33 74 -37 85 -34 85 -177 355 -193 366 -6 3
-9 9 -9 13 1 3 -5 16 -12 29 -55 90 -82 133 -87 137 -4 3 -26 34 -50 70 -24
36 -47 67 -52 68 -4 2 -8 8 -8 13 0 5 -7 17 -16 27 -61 69 -79 90 -106 129
-17 24 -34 43 -37 43 -4 0 -14 -8 -22 -17 -9 -10 -43 -41 -75 -70 -32 -28 -75
-65 -94 -82 -19 -17 -54 -46 -77 -64 -48 -36 -50 -43 -25 -66 10 -9 33 -36 52
-61 19 -25 37 -47 41 -50 3 -3 23 -30 44 -60 21 -30 41 -57 45 -60 4 -3 15
-21 26 -40 10 -19 24 -40 31 -47 44 -48 285 -503 286 -540 0 -7 4 -13 9 -13 4
0 7 -3 6 -7 -3 -7 10 -44 32 -98 5 -11 19 -51 30 -90 12 -38 26 -79 30 -90 12
-31 58 -212 74 -295 50 -250 65 -418 62 -680 -2 -124 -9 -259 -14 -300 -6 -41
-14 -95 -16 -120 -5 -43 -10 -78 -21 -137 -17 -99 -54 -242 -84 -328 -12 -32
-21 -67 -21 -77 0 -10 -5 -18 -12 -18 -6 0 -9 -3 -6 -6 6 -6 -29 -121 -42
-139 -4 -5 -10 -23 -14 -38 -4 -15 -29 -74 -56 -130 -27 -56 -50 -109 -52
-117 -2 -8 -10 -20 -18 -27 -8 -7 -11 -13 -6 -13 5 0 3 -7 -4 -15 -11 -13 -23
-35 -68 -120 -9 -16 -22 -36 -29 -43 -7 -7 -13 -20 -13 -28 0 -8 -4 -14 -10
-14 -5 0 -10 -7 -10 -15 0 -8 -4 -15 -9 -15 -5 0 -14 -13 -21 -29 -6 -16 -19
-37 -29 -47 -9 -11 -32 -41 -51 -69 -19 -27 -40 -56 -47 -63 -7 -7 -13 -16
-13 -20 0 -4 -29 -38 -65 -77 -35 -38 -64 -73 -65 -76 0 -6 -245 -252 -280
-282 -8 -7 -53 -44 -100 -82 -47 -39 -86 -73 -88 -77 -2 -5 -9 -8 -16 -8 -7 0
-21 -9 -31 -20 -10 -11 -22 -20 -28 -20 -5 0 -26 -14 -46 -30 -55 -47 -60 -50
-67 -50 -3 0 -40 -20 -81 -45 -40 -25 -76 -45 -79 -45 -2 0 -34 -18 -70 -40
-36 -22 -70 -40 -75 -40 -4 0 -43 -17 -86 -39 -43 -21 -105 -50 -138 -63 -42
-17 -60 -30 -59 -41 1 -9 -2 -17 -7 -17 -5 0 -9 2 -9 4 0 2 -3 11 -6 20 -6 15
10 24 126 73 19 8 62 28 94 44 33 16 65 29 73 29 7 0 13 5 13 10 0 6 4 10 9
10 11 0 211 111 250 139 16 12 33 21 38 21 5 0 24 13 43 30 19 16 41 29 48 30
6 0 12 4 12 8 0 5 16 17 35 28 19 10 35 22 35 26 0 5 4 8 10 8 5 0 20 10 33
23 13 12 39 33 57 47 18 14 48 39 66 56 17 18 37 33 43 35 6 2 -6 22 -27 45
-20 22 -77 87 -126 145 -50 57 -108 125 -130 150 -23 25 -50 56 -60 70 -11 13
-52 60 -90 105 -39 44 -90 102 -113 130 -66 78 -75 88 -123 141 -25 28 -65 74
-89 103 -25 29 -52 59 -60 68 -9 9 -27 30 -41 47 -14 17 -50 60 -82 96 -31 35
-107 123 -168 194 -62 72 -132 153 -156 180 -24 28 -49 58 -56 67 -12 17 -16
15 -53 -18 -55 -51 -156 -124 -172 -124 -7 0 -13 -3 -13 -8 0 -6 -90 -51 -134
-66 -13 -4 -15 -10 -8 -19 12 -14 25 -48 167 -427 151 -400 152 -403 195 -520
21 -58 57 -152 80 -210 22 -58 48 -124 56 -148 8 -24 36 -96 60 -160 25 -64
52 -135 59 -157 8 -22 28 -76 45 -120 17 -44 36 -95 42 -114 14 -48 -2 -78
-47 -87 -19 -3 -35 -10 -35 -16 0 -5 -4 -7 -9 -4 -5 3 -26 -1 -46 -10 -43 -18
-221 -64 -247 -64 -10 0 -18 -4 -18 -10 0 -5 -12 -10 -28 -10 -15 0 -74 -9
-132 -20 -121 -24 -411 -50 -551 -50 -165 0 -490 33 -639 64 -182 39 -358 90
-343 99 5 3 57 -7 114 -22 153 -42 276 -68 439 -93 123 -18 187 -22 420 -22
293 0 405 11 640 59 64 14 126 26 136 28 35 7 233 68 302 94 47 18 49 22 22
78 -10 22 -31 78 -47 125 -15 47 -31 87 -34 90 -3 3 -9 14 -12 25 -3 11 -19
56 -36 100 -16 44 -46 125 -66 180 -21 55 -41 109 -46 120 -27 64 -59 150 -59
157 0 5 -8 28 -19 51 -10 23 -31 76 -46 117 -15 41 -33 89 -40 105 -7 17 -61
161 -120 320 -59 160 -113 304 -120 320 -7 17 -21 54 -31 83 -16 45 -22 52
-39 48 -11 -3 -60 -16 -110 -30 -49 -13 -129 -27 -177 -31 l-88 -7 -1 -179
c-1 -99 -2 -182 -3 -186 -1 -5 -6 -327 -11 -718 -4 -390 -9 -728 -10 -750 -1
-22 -3 -73 -3 -114 -1 -41 -5 -71 -9 -68 -8 9 -6 324 7 1047 6 305 12 648 13
763 l2 207 -35 1 c-111 1 -255 28 -350 64 -25 9 -55 19 -67 22 -13 3 -23 9
-23 13 0 4 -18 12 -40 19 -22 6 -40 16 -40 21 0 6 -7 10 -16 10 -8 0 -30 11
-48 25 l-33 25 -48 -78 c-27 -42 -53 -78 -57 -80 -4 -2 -8 -10 -8 -17 0 -7 -3
-15 -7 -17 -5 -1 -37 -48 -73 -103 -36 -55 -67 -102 -70 -105 -3 -3 -9 -13
-15 -22 -14 -24 -291 -438 -312 -466 -9 -13 -45 -67 -79 -120 -35 -54 -67
-101 -71 -107 -11 -13 -105 -150 -118 -173 -6 -9 -42 -63 -80 -120 -39 -57
-77 -114 -85 -127 -12 -19 -77 -116 -97 -144 -2 -2 -6 -2 -9 1 -4 5 367 571
408 623 5 6 74 109 154 230 80 121 152 229 160 240 8 11 47 70 86 130 40 61
76 115 81 120 4 6 31 46 60 90 28 44 57 86 64 93 7 7 13 17 13 22 0 5 6 15 13
22 6 7 27 36 46 63 32 46 32 49 15 62 -37 26 -99 79 -144 122 -25 25 -52 44
-60 43 -13 -2 -13 -1 -1 7 14 9 51 -6 51 -21 0 -5 4 -8 10 -8 5 0 27 -18 47
-40 21 -22 42 -40 46 -40 5 0 14 -6 21 -12 29 -29 66 -58 66 -53 0 3 10 -3 22
-15 12 -11 28 -20 35 -20 7 0 13 -5 13 -11 0 -5 5 -7 10 -4 6 3 10 3 10 -2 0
-4 15 -14 33 -21 17 -8 51 -22 74 -33 57 -27 91 -37 218 -67 75 -17 377 -26
405 -12 8 4 33 10 55 13 108 13 362 126 434 193 14 13 29 24 32 24 4 0 31 23
60 50 29 28 57 50 61 50 4 0 8 5 8 10 0 6 12 22 26 35 15 14 23 25 19 25 -4 0
1 8 11 18 11 9 28 31 38 47 11 17 25 34 33 38 7 4 13 16 13 27 0 10 4 20 8 22
17 7 94 184 112 258 6 25 15 56 20 70 5 14 12 50 15 80 6 70 7 299 1 309 -3 4
-6 28 -7 54 -2 26 -5 47 -9 47 -3 0 -11 26 -19 58 -25 112 -113 290 -188 385
-13 16 -23 36 -23 44 0 37 148 -189 176 -271 8 -22 18 -44 23 -50 15 -19 51
-176 63 -271 13 -107 14 -147 4 -240 -4 -38 -9 -87 -11 -107 -4 -40 -52 -207
-65 -223 -4 -5 -11 -24 -15 -42 -6 -30 -4 -33 32 -50 21 -11 67 -35 103 -55
36 -19 119 -64 185 -98 66 -34 125 -66 130 -70 6 -4 62 -35 125 -67 63 -33
144 -76 180 -95 36 -19 94 -50 130 -69 36 -19 71 -39 77 -46 7 -6 26 -14 43
-18 16 -4 30 -11 30 -16 0 -5 4 -9 10 -9 5 0 58 -26 117 -59 112 -60 215 -115
368 -196 251 -132 272 -145 247 -145 -7 0 -43 16 -80 37 -37 20 -107 57 -157
83 -49 26 -121 64 -160 85 -102 55 -178 96 -285 152 -52 28 -122 65 -155 83
-33 18 -91 49 -130 70 -38 21 -113 60 -165 87 -52 28 -117 63 -145 78 -27 15
-120 64 -205 108 -85 44 -166 88 -180 97 -14 9 -46 27 -72 39 -27 13 -48 27
-48 32 0 19 -18 -2 -43 -50 -43 -81 -108 -169 -174 -237 -13 -13 -23 -25 -23
-27 0 -3 15 -22 34 -43 36 -40 188 -216 234 -270 81 -94 129 -150 149 -171 11
-13 36 -43 55 -65 18 -23 42 -51 53 -62 11 -12 45 -50 75 -86 30 -36 60 -70
65 -76 6 -6 35 -39 65 -74 30 -34 63 -72 73 -84 11 -12 40 -45 65 -75 26 -30
55 -63 65 -73 9 -10 15 -18 13 -18 -2 0 10 -15 28 -32 17 -18 50 -55 73 -83
72 -87 82 -99 121 -140 33 -37 115 -130 163 -188 15 -18 18 -19 19 -5 0 9 6
21 14 25 22 12 93 82 176 173 41 45 81 88 88 95 6 8 12 18 12 24 0 6 9 15 20
21 11 6 20 17 20 25 0 8 4 15 8 15 5 0 21 18 38 40 16 23 37 50 47 62 9 12 17
25 17 29 0 4 10 18 23 31 12 13 31 40 42 61 11 21 28 47 38 57 9 11 17 22 17
25 0 4 19 39 43 78 37 62 113 212 178 352 56 120 166 496 199 680 7 39 15 75
17 81 2 6 -43 17 -119 28 -68 10 -177 26 -243 37 -129 21 -392 62 -545 84 -52
8 -138 21 -190 29 -52 8 -126 19 -165 25 -38 6 -113 18 -165 26 -154 25 -420
66 -495 77 -38 5 -72 12 -74 14 -15 15 26 12 166 -11 87 -14 201 -32 253 -40
124 -18 297 -44 335 -50 17 -3 102 -16 190 -30 88 -13 277 -42 420 -64 143
-23 323 -50 400 -62 77 -11 160 -25 184 -30 24 -5 45 -8 46 -7 1 2 8 50 16
108 16 128 16 577 0 700 -19 146 -53 344 -61 365 -5 11 -14 45 -20 75 -16 74
-103 335 -147 440 -39 94 -140 300 -154 315 -5 5 -9 17 -9 27 0 23 -3 23 -48
-5 -20 -13 -57 -35 -82 -49 -56 -31 -425 -245 -465 -269 -16 -11 -37 -22 -45
-26 -8 -4 -43 -24 -78 -45 -34 -21 -65 -38 -69 -38 -3 0 -39 -20 -79 -45 -39
-25 -75 -45 -79 -45 -3 0 -30 -15 -58 -34 -29 -18 -95 -57 -147 -86 -52 -30
-128 -73 -167 -97 -40 -24 -77 -43 -83 -43 -5 0 -10 -4 -10 -10 0 -5 -4 -10
-9 -10 -5 0 -64 -32 -132 -72 -201 -116 -209 -120 -209 -109 0 6 17 20 38 31
116 64 173 97 184 108 6 6 16 12 20 12 5 0 37 17 71 38 55 34 162 96 266 154
20 11 77 44 126 73 78 46 209 122 500 288 39 22 95 54 125 70 30 17 57 33 60
36 3 4 30 19 60 35 30 16 61 34 69 40 19 15 138 83 183 104 43 20 45 23 20 60
-49 71 -92 143 -92 152 0 5 -4 10 -9 10 -5 0 -20 17 -32 38 -13 20 -27 39 -31
40 -4 2 -8 10 -8 18 0 8 -4 14 -8 14 -4 0 -15 12 -24 28 -9 15 -32 44 -50 64
-47 53 -68 81 -68 90 0 20 -27 2 -117 -77 -53 -47 -103 -85 -111 -85 -14 0 70
73 112 97 11 7 18 13 13 13 -8 0 67 70 75 70 3 0 27 21 54 48 80 77 275 242
286 242 6 0 27 -17 47 -39z m1015 -23 c8 -5 7 -8 -1 -8 -7 0 -17 9 -23 19 -14
27 -12 41 2 16 6 -11 16 -23 22 -27z m-14 -48 c0 -13 -1 -13 -10 0 -5 8 -10
22 -10 30 0 13 1 13 10 0 5 -8 10 -22 10 -30z m26 -13 c1 -50 -13 -47 -18 3
-2 25 0 39 7 37 5 -2 10 -20 11 -40z m48 -83 c4 -49 3 -55 -6 -34 -6 14 -12
28 -12 32 -1 3 -4 10 -8 14 -12 11 -10 36 2 29 6 -3 10 2 10 11 0 39 10 4 14
-52z m-509 46 c3 -5 -1 -10 -10 -10 -9 0 -13 5 -10 10 3 6 8 10 10 10 2 0 7
-4 10 -10z m542 -80 c-3 -11 1 -23 8 -28 16 -9 26 -74 11 -69 -6 2 -10 14 -9
26 2 12 -4 24 -12 27 -17 7 -21 64 -4 64 6 0 9 -9 6 -20z m-1080 -46 c-3 -3
-12 -4 -19 -1 -8 3 -5 6 6 6 11 1 17 -2 13 -5z m-43 -13 c3 -5 -5 -8 -19 -8
-14 0 -22 3 -19 8 3 5 11 9 19 9 8 0 16 -4 19 -9z m-34 -24 c0 -2 -9 -12 -20
-22 -17 -16 -20 -16 -20 -2 0 8 8 18 18 20 9 3 18 5 20 6 1 0 2 -1 2 -2z m190
-18 c0 -6 -4 -7 -10 -4 -5 3 -10 11 -10 16 0 6 5 7 10 4 6 -3 10 -11 10 -16z
m1017 -11 c-3 -7 -5 -2 -5 12 0 14 2 19 5 13 2 -7 2 -19 0 -25z m37 -37 c-7
-8 -35 9 -29 19 4 6 11 5 20 -3 7 -6 11 -14 9 -16z m-39 -2 c10 -30 2 -32 -12
-3 -6 13 -7 24 -3 24 5 0 12 -9 15 -21z m-988 -11 c-3 -8 -6 -5 -6 6 -1 11 2
17 5 13 3 -3 4 -12 1 -19z m1010 -30 c-3 -8 -6 -5 -6 6 -1 11 2 17 5 13 3 -3
4 -12 1 -19z m33 -25 c0 -30 -3 -44 -10 -37 -8 8 -3 84 6 84 2 0 4 -21 4 -47z
m-1062 -29 c-12 -18 -27 -34 -31 -34 -4 0 3 15 17 33 15 19 27 42 27 53 1 18
2 18 6 1 3 -10 -6 -34 -19 -53z m-239 13 c1 -5 -3 -5 -9 -2 -5 3 -10 16 -9 28
0 21 1 21 9 2 5 -11 9 -24 9 -28z m1327 -34 c-3 -7 -11 -13 -18 -13 -10 0 -10
2 0 9 8 5 11 18 7 37 -5 28 -5 28 5 5 6 -14 8 -31 6 -38z m-1754 -25 c29 -61
-5 -118 -70 -118 -39 0 -82 31 -82 60 0 38 -22 26 -100 -51 -29 -28 -80 -65
-80 -57 0 8 160 148 169 148 5 0 16 -16 25 -35 38 -80 153 -44 131 42 -3 12
-18 29 -33 38 l-27 15 25 -2 c18 -2 30 -14 42 -40z m-97 22 c-3 -5 -12 -10
-18 -10 -7 0 -6 4 3 10 19 12 23 12 15 0z m1878 -24 c4 -10 1 -13 -8 -9 -8 3
-12 9 -9 14 7 12 11 11 17 -5z m-25 -36 c-2 -7 -10 1 -17 16 -12 27 -11 28 4
12 10 -9 16 -21 13 -28z m-1223 20 c13 -6 15 -9 5 -9 -8 0 -22 4 -30 9 -18 12
-2 12 25 0z m68 3 c-7 -2 -21 -2 -30 0 -10 3 -4 5 12 5 17 0 24 -2 18 -5z
m1196 -50 c9 -6 13 -15 9 -18 -10 -11 -38 21 -37 42 0 14 2 15 6 3 4 -8 13
-20 22 -27z m29 -68 c-2 -25 -7 -44 -11 -42 -9 3 -10 8 -1 55 9 46 15 39 12
-13z m-18 19 c0 -14 -3 -14 -15 -4 -8 7 -15 14 -15 16 0 2 7 4 15 4 8 0 15 -7
15 -16z m-1601 -46 c16 -12 25 -29 28 -61 5 -38 2 -48 -23 -75 -29 -31 -43
-35 -96 -33 -42 2 -78 47 -78 97 0 88 92 127 169 72z m1643 -36 c-6 -2 -12
-13 -12 -23 0 -11 5 -17 10 -14 6 3 10 -3 10 -15 0 -19 -1 -20 -16 -6 -11 11
-14 28 -10 58 6 57 6 57 19 29 9 -19 9 -25 -1 -29z m-2110 1 c35 -40 40 -61
22 -98 -37 -79 -154 -56 -154 30 0 29 18 14 24 -20 7 -38 35 -52 80 -41 52 13
53 106 1 126 -29 11 -32 20 -7 20 11 0 26 -8 34 -17z m2144 -44 c1 -5 2 -27 3
-48 1 -31 5 -40 20 -43 18 -3 18 -6 6 -33 l-14 -30 6 29 c5 24 3 28 -9 23 -10
-3 -19 3 -27 19 -14 32 -14 47 0 38 9 -5 10 4 4 32 -4 21 -3 35 2 31 4 -5 9
-13 9 -18z m-2342 -47 c-27 -26 -79 -72 -113 -102 -35 -30 -76 -66 -91 -80
-15 -14 -50 -44 -76 -66 -27 -23 -59 -50 -70 -60 -12 -11 -45 -39 -74 -64 -29
-25 -64 -56 -79 -70 -38 -35 -149 -132 -173 -150 -10 -8 -34 -29 -52 -47 -18
-18 -36 -30 -39 -26 -4 3 2 13 12 22 10 9 45 39 77 66 32 28 65 57 74 65 9 8
47 42 85 74 39 33 75 64 80 70 9 10 110 99 185 163 14 11 43 37 65 57 22 19
46 36 54 36 8 0 11 3 8 7 -4 3 10 20 30 37 20 17 59 50 85 74 66 57 75 53 12
-6z m379 -98 c26 -34 22 -92 -9 -120 -35 -33 -78 -31 -115 5 -36 37 -36 81 0
117 32 33 97 31 124 -2z m2022 -14 c3 -5 -1 -10 -10 -10 -9 0 -13 5 -10 10 3
6 8 10 10 10 2 0 7 -4 10 -10z m-28 -52 c-3 -7 -5 -2 -5 12 0 14 2 19 5 13 2
-7 2 -19 0 -25z m20 -15 c-3 -10 -5 -4 -5 12 0 17 2 24 5 18 2 -7 2 -21 0 -30z
m33 -22 c0 -11 6 -22 13 -25 10 -5 10 -7 0 -12 -7 -3 -13 -15 -13 -27 0 -17 2
-19 9 -8 15 23 25 -33 11 -59 -8 -16 -9 -25 0 -35 6 -8 10 -29 7 -47 l-4 -33
-1 37 c-1 20 -6 39 -11 42 -8 5 -26 82 -22 99 0 4 -3 7 -9 7 -5 0 -10 5 -10
11 0 5 5 7 12 3 8 -5 9 3 5 29 -3 21 -2 37 4 37 5 0 9 -9 9 -19z m-2564 -42
c16 -22 34 -46 40 -52 30 -34 83 -117 76 -121 -4 -2 -19 12 -32 32 -13 20 -41
57 -61 82 -49 61 -73 100 -62 100 5 0 22 -18 39 -41z m2544 32 c0 -6 -4 -13
-10 -16 -5 -3 -10 1 -10 9 0 9 5 16 10 16 6 0 10 -4 10 -9z m-1548 -30 c121
-47 85 -201 -47 -201 -62 0 -98 28 -118 91 -8 24 30 94 56 107 28 13 78 15
109 3z m-1092 -49 c53 -63 130 -173 130 -184 0 -16 -19 -7 -25 11 -3 11 -19
37 -36 58 -17 21 -42 53 -57 72 -15 19 -33 40 -40 48 -11 11 -11 13 0 13 7 0
20 -8 28 -18z m1532 -12 c-15 -17 -28 -26 -30 -20 -2 6 6 20 19 30 34 30 41
24 11 -10z m247 -44 c-2 -20 -2 -20 -6 2 -2 12 -9 22 -14 22 -5 0 -9 5 -9 11
0 8 5 8 15 -1 8 -7 14 -22 14 -34z m931 -6 c0 -5 -4 -10 -10 -10 -5 0 -10 5
-10 10 0 6 5 10 10 10 6 0 10 -4 10 -10z m-933 -57 c-3 -10 -5 -4 -5 12 0 17
2 24 5 18 2 -7 2 -21 0 -30z m-290 -5 c-3 -7 -5 -2 -5 12 0 14 2 19 5 13 2 -7
2 -19 0 -25z m1233 23 c0 -6 -4 -13 -10 -16 -5 -3 -10 1 -10 9 0 9 5 16 10 16
6 0 10 -4 10 -9z m-2023 -7 c95 -19 114 -148 28 -188 -41 -20 -68 -20 -105 -1
-80 41 -73 151 10 184 31 12 31 12 67 5z m-818 -105 c34 -44 61 -84 61 -90 0
-21 -18 -5 -59 56 -24 36 -54 75 -66 87 -13 12 -21 26 -19 30 8 13 19 2 83
-83z m1628 65 c-3 -3 -12 -4 -19 -1 -8 3 -5 6 6 6 11 1 17 -2 13 -5z m1226 -1
c-7 -2 -19 -2 -25 0 -7 3 -2 5 12 5 14 0 19 -2 13 -5z m-1193 -38 c13 -14 19
-25 14 -25 -6 0 -20 11 -32 25 -12 14 -18 25 -14 25 5 0 19 -11 32 -25z m1167
-7 c-3 -7 -5 -2 -5 12 0 14 2 19 5 13 2 -7 2 -19 0 -25z m-957 12 c0 -5 -10
-15 -22 -21 -23 -12 -23 -12 -4 10 21 23 26 26 26 11z m1002 -37 c8 -10 6 -13
-6 -13 -12 0 -16 9 -15 33 1 21 3 25 6 12 3 -11 10 -26 15 -32z m-2931 -103
c35 -47 52 -80 41 -80 -5 0 -30 31 -55 69 -26 38 -59 81 -72 96 -14 14 -23 31
-20 36 6 8 36 -26 106 -121z m1879 105 c0 -8 -4 -15 -10 -15 -5 0 -7 7 -4 15
4 8 8 15 10 15 2 0 4 -7 4 -15z m-35 -15 c3 -5 2 -10 -4 -10 -5 0 -13 5 -16
10 -3 6 -2 10 4 10 5 0 13 -4 16 -10z m-38 -6 c-3 -3 -12 -4 -19 -1 -8 3 -5 6
6 6 11 1 17 -2 13 -5z m1114 -25 l7 -24 1 24 c1 29 6 26 15 -11 5 -21 3 -28
-8 -28 -10 0 -13 -6 -10 -15 4 -8 2 -15 -3 -15 -5 0 -10 15 -11 32 -2 18 -7
37 -12 42 -14 14 -12 28 2 24 7 -3 15 -15 19 -29z m-1487 -64 c40 -39 50 -82
31 -127 -28 -69 -89 -97 -158 -73 -23 8 -43 19 -45 25 -2 6 -10 17 -18 24 -20
20 -18 101 3 133 22 33 84 61 124 55 17 -3 45 -19 63 -37z m-914 5 c0 -6 15
-43 34 -83 56 -120 122 -314 111 -326 -7 -7 -8 -5 -42 100 -17 52 -50 138 -73
190 -51 115 -55 129 -41 129 6 0 11 -5 11 -10z m2424 -34 c-6 -15 -24 -23 -24
-11 0 8 24 34 28 30 1 -1 0 -10 -4 -19z m-3158 -48 c25 -35 51 -66 56 -69 6
-4 5 -10 -3 -15 -7 -4 -14 -3 -16 3 -2 6 -12 21 -22 32 -10 12 -29 37 -42 56
-13 19 -27 35 -31 35 -5 0 -8 5 -8 10 0 24 23 6 66 -52z m732 -186 c37 -98 65
-206 50 -192 -3 3 -24 60 -46 126 -22 67 -56 155 -75 195 -19 41 -32 78 -29
83 7 13 49 -76 100 -212z m-938 148 c-36 -33 -68 -60 -72 -60 -3 0 -14 -7 -22
-16 -9 -8 -16 -11 -16 -6 0 5 14 20 31 33 18 13 53 43 78 66 25 24 51 43 56
43 6 0 -19 -27 -55 -60z m3357 28 c-3 -8 -6 -5 -6 6 -1 11 2 17 5 13 3 -3 4
-12 1 -19z m-3199 -129 c-2 -7 -25 17 -50 52 -25 35 -44 68 -41 72 7 11 96
-110 91 -124z m3242 89 c0 -10 -4 -18 -10 -18 -5 0 -10 15 -10 33 0 24 3 28
10 17 5 -8 10 -23 10 -32z m-1954 1 c49 -30 64 -84 37 -136 -56 -108 -224 -60
-209 60 10 85 97 123 172 76z m1943 -31 c24 -17 38 -90 32 -160 -5 -48 -8 -56
-21 -47 -11 8 -12 12 -2 16 15 6 16 40 2 45 -6 2 -13 21 -15 43 l-5 40 14 -40
c12 -35 14 -36 15 -14 1 15 -2 41 -6 60 -5 28 -7 30 -14 14 -6 -16 -8 -13 -8
13 -1 19 -5 31 -11 27 -6 -4 -9 7 -9 27 1 23 3 26 6 11 2 -13 12 -28 22 -35z
m-2679 -138 c26 -70 59 -166 60 -177 0 -2 -4 -3 -9 -3 -4 0 -20 38 -35 84 -14
46 -37 105 -51 131 -13 27 -21 53 -18 58 8 14 17 -1 53 -93z m-871 40 c-24
-22 -48 -40 -54 -39 -5 0 12 20 39 45 27 24 51 42 54 39 3 -3 -15 -23 -39 -45z
m748 -37 c31 -70 65 -173 60 -187 -3 -6 -8 -2 -12 9 -8 23 -78 205 -83 217 -2
4 0 8 5 8 4 0 18 -21 30 -47z m1551 2 c-3 -3 -36 -12 -74 -20 -38 -7 -100 -21
-139 -30 -38 -9 -113 -25 -165 -35 -52 -11 -178 -38 -280 -60 -102 -22 -198
-43 -215 -46 -16 -3 -91 -18 -165 -34 -74 -16 -223 -47 -330 -70 -107 -23
-222 -47 -255 -55 -222 -51 -359 -75 -343 -60 5 5 317 74 408 91 48 9 370 78
505 109 33 7 119 26 190 40 196 41 351 73 445 94 83 18 229 50 320 69 51 11
106 15 98 7z m-2322 -35 c9 0 13 -4 9 -9 -3 -5 3 -16 13 -23 10 -7 29 -33 43
-58 13 -25 26 -47 29 -50 13 -13 61 -127 67 -160 2 -13 8 -29 13 -35 4 -5 11
-26 14 -45 3 -19 9 -48 13 -65 3 -16 8 -89 10 -162 7 -224 -40 -385 -172 -588
-21 -33 -44 -66 -51 -72 -7 -7 -21 -23 -31 -35 -24 -30 -150 -139 -188 -163
-66 -41 -177 -95 -200 -97 -14 -1 -25 -6 -25 -10 0 -4 -8 -8 -18 -8 -10 0 -27
-7 -38 -15 -12 -8 -24 -12 -26 -9 -3 2 -36 -2 -74 -10 -182 -38 -453 0 -619
88 -26 14 -52 26 -56 26 -5 0 -18 9 -29 20 -11 11 -27 20 -35 20 -18 0 -20 26
-2 37 6 4 17 15 22 24 18 30 129 194 135 199 10 10 50 69 50 75 0 6 51 81 77
115 7 8 19 24 27 35 9 11 16 15 16 8 0 -14 -133 -218 -188 -288 -4 -5 -34 -50
-66 -98 -55 -84 -57 -89 -40 -102 26 -20 27 -19 49 18 10 17 36 58 57 90 21
32 38 65 38 73 0 8 4 14 8 14 4 0 26 30 47 66 22 36 49 80 60 97 11 18 31 50
44 71 14 22 27 34 29 28 2 -7 -16 -43 -40 -81 -24 -39 -81 -131 -128 -206 -47
-75 -89 -145 -95 -156 -5 -10 -13 -19 -17 -19 -5 0 -8 -6 -8 -13 0 -13 35 -31
120 -64 19 -7 44 -17 55 -22 60 -27 179 -45 310 -48 150 -2 173 2 157 33 -8
17 -14 44 -28 139 -1 11 -15 90 -29 175 -15 85 -29 172 -32 192 l-5 37 -44 -6
c-48 -6 -154 12 -181 32 -15 11 -15 18 -5 51 15 51 -1 70 -30 34 -26 -31 -60
-36 -83 -10 -22 24 -2 28 22 4 15 -14 19 -13 45 15 33 35 32 35 59 21 23 -13
24 -38 3 -68 -9 -13 -14 -24 -13 -25 43 -25 194 -48 218 -32 6 3 5 19 -2 43
-18 52 -11 82 18 82 14 0 26 -7 29 -17 3 -10 10 -38 16 -61 11 -41 12 -43 29
-28 10 9 21 16 25 16 4 0 28 14 54 32 52 36 100 88 121 130 17 35 30 32 123
-28 37 -24 72 -44 77 -44 6 0 11 -4 11 -8 0 -9 75 -54 86 -52 4 1 10 -2 13 -7
12 -18 203 -143 218 -143 6 0 13 15 17 32 8 39 3 43 -104 96 -41 20 -76 40
-78 45 -2 4 -8 7 -14 7 -6 0 -33 14 -60 30 -26 17 -54 30 -60 30 -6 0 -19 6
-27 14 -9 8 -41 26 -71 42 -30 15 -68 37 -85 49 -44 31 -65 37 -71 20 -4 -8
-10 -15 -15 -15 -12 0 -11 21 1 40 8 12 13 12 44 -3 20 -9 36 -12 36 -7 0 6 7
10 16 10 14 0 14 -3 4 -15 -7 -9 -11 -16 -9 -18 37 -21 74 -37 85 -37 8 0 14
-4 14 -9 0 -5 8 -11 18 -15 21 -7 55 -28 63 -39 3 -5 9 -9 12 -8 15 1 67 -22
67 -28 0 -4 18 -14 40 -21 22 -7 40 -17 40 -21 0 -6 49 -28 65 -28 3 0 15 -10
27 -21 12 -11 27 -20 34 -20 7 0 17 -8 23 -17 7 -14 12 -15 24 -5 8 7 17 23
20 35 3 12 15 56 26 97 27 94 38 294 22 403 -17 118 -48 211 -109 322 -18 33
-35 68 -39 78 -7 22 -16 22 -38 -3 -10 -11 -23 -20 -30 -20 -6 0 -20 -8 -31
-18 -10 -9 -66 -49 -124 -87 -58 -38 -107 -72 -110 -75 -3 -3 -38 -28 -77 -55
-40 -26 -73 -50 -73 -52 0 -2 8 -15 17 -30 31 -46 50 -122 52 -203 2 -68 0
-80 -14 -80 -11 0 -15 6 -10 19 13 42 -5 201 -25 221 -3 3 -11 18 -18 33 -8
18 -16 25 -25 20 -6 -4 -1 6 13 23 14 17 60 55 103 85 43 30 83 59 90 64 7 6
20 15 29 20 57 36 158 107 169 118 8 7 29 20 47 28 38 16 38 19 12 47 -11 12
-20 27 -19 34 0 10 2 10 6 1 2 -7 11 -13 19 -13z m3621 -12 c-3 -7 -5 -2 -5
12 0 14 2 19 5 13 2 -7 2 -19 0 -25z m-3039 -80 c34 -88 52 -160 35 -143 -5 6
-15 30 -22 55 -7 25 -24 69 -37 98 -25 55 -29 72 -16 72 4 0 22 -37 40 -82z
m-658 62 c0 -5 -5 -10 -11 -10 -5 0 -7 5 -4 10 3 6 8 10 11 10 2 0 4 -4 4 -10z
m3705 -93 c1 -41 5 -79 9 -86 4 -7 10 -76 12 -154 3 -78 6 -150 8 -159 2 -10
1 -18 -4 -18 -4 0 -11 72 -15 160 -4 90 -11 160 -17 160 -5 0 -6 -9 -3 -20 4
-12 2 -20 -4 -20 -6 0 -11 12 -10 28 1 15 -1 61 -4 102 -6 70 -6 72 4 20 14
-83 18 -83 12 0 -3 41 -2 72 2 67 5 -4 9 -40 10 -80z m-3741 58 c-23 -17 -34
-19 -34 -4 0 5 4 8 9 4 5 -3 12 -1 16 5 3 5 11 10 18 10 6 0 2 -7 -9 -15z
m589 -68 c43 -117 42 -151 -3 -42 -42 105 -45 115 -32 115 4 0 20 -33 35 -73z
m-3441 25 c-7 -2 -12 -9 -12 -16 0 -7 -9 -23 -20 -36 -18 -21 -22 -29 -19 -46
0 -4 -3 -10 -8 -13 -5 -3 -19 -49 -32 -101 -13 -52 -27 -100 -32 -106 -5 -6
-22 -64 -39 -130 -36 -135 -38 -146 -50 -194 -5 -19 -27 -105 -50 -190 -23
-85 -43 -164 -45 -174 -9 -39 -27 -87 -32 -83 -6 7 169 684 205 792 11 33 30
94 42 135 22 75 91 200 99 178 2 -7 -1 -14 -7 -16z m2798 3 c-7 -8 -20 -15
-29 -15 -12 0 -10 5 9 20 28 21 39 18 20 -5z m-45 -37 c-11 -7 -25 -16 -31
-22 -6 -6 -30 -27 -54 -46 -24 -19 -54 -45 -66 -57 -12 -12 -25 -19 -28 -16
-6 6 12 24 70 72 16 13 44 37 62 53 18 15 40 28 50 28 14 -1 14 -2 -3 -12z
m2362 -20 c28 -27 45 -84 37 -127 -4 -19 -21 -43 -43 -61 -29 -25 -45 -30 -86
-30 -28 0 -59 7 -69 15 -77 59 -73 178 8 220 42 22 121 13 153 -17z m-417 -73
c36 -19 50 -43 50 -88 0 -72 -83 -123 -153 -93 -43 18 -67 51 -67 94 0 45 16
71 53 87 42 19 81 18 117 0z m-401 -112 c23 -187 26 -501 4 -479 -3 3 -5 74
-4 158 1 138 -4 214 -25 361 -4 29 -3 47 3 47 6 0 15 -39 22 -87z m-113 49
c24 -157 35 -312 29 -410 -4 -62 -12 -115 -17 -118 -6 -4 -7 36 -3 103 7 110
-7 341 -25 403 -5 18 -7 37 -4 42 8 12 17 2 20 -20z m2403 -29 l-2 -48 -6 40
c-7 38 -5 55 5 55 2 0 3 -21 3 -47z m-4058 2 c-21 -19 -42 -35 -47 -35 -11 1
67 70 79 70 4 0 -10 -16 -32 -35z m1439 -60 c15 -95 20 -399 6 -402 -4 -2 -8
57 -7 130 1 72 -5 183 -14 246 -18 135 -17 123 -7 117 5 -3 15 -44 22 -91z
m1597 79 c-3 -3 -12 -4 -19 -1 -8 3 -5 6 6 6 11 1 17 -2 13 -5z m-1713 -61
c22 -124 27 -413 7 -413 -3 0 -5 55 -4 122 1 68 -2 143 -7 168 -14 80 -20 160
-11 160 5 0 11 -17 15 -37z m1661 17 c-3 -5 -10 -10 -16 -10 -5 0 -9 5 -9 10
0 6 7 10 16 10 8 0 12 -4 9 -10z m-35 -30 c0 -5 -5 -10 -11 -10 -5 0 -7 5 -4
10 3 6 8 10 11 10 2 0 4 -4 4 -10z m1120 -4 c0 -3 -4 -8 -10 -11 -5 -3 -10 -1
-10 4 0 6 5 11 10 11 6 0 10 -2 10 -4z m-2952 -203 c3 -92 1 -163 -4 -163 -5
0 -9 46 -9 103 -1 56 -4 138 -8 182 -6 62 -5 76 4 61 7 -12 14 -86 17 -183z
m-1234 156 c-10 -11 -28 -26 -39 -31 -14 -8 -12 -2 9 21 33 34 61 44 30 10z
m1124 -153 c3 -113 2 -156 -7 -156 -8 0 -11 37 -11 123 0 67 -4 139 -9 159 -5
20 -6 40 -3 43 17 17 25 -29 30 -169z m3054 77 c-8 -13 -9 -8 -7 18 2 18 5 45
6 59 1 14 4 6 6 -17 2 -24 0 -50 -5 -60z m-842 19 c-7 -13 -9 -8 -9 23 0 35 1
37 10 17 6 -15 5 -30 -1 -40z m-291 -14 c-1 -37 -2 -39 -9 -18 -12 36 -12 60
0 60 6 0 10 -19 9 -42z m-3049 -26 c16 -35 24 -117 15 -139 -5 -10 -10 -27
-12 -37 -8 -43 -68 -116 -95 -116 -17 0 -7 18 12 23 11 3 20 12 20 20 0 8 7
17 15 21 8 3 15 15 15 26 0 16 -7 20 -30 20 -22 0 -33 7 -44 28 -14 27 -14 27
19 26 35 -1 55 -10 55 -25 0 -6 -7 -6 -19 1 -24 12 -41 13 -41 1 0 -5 11 -12
24 -15 13 -3 32 -9 42 -13 13 -5 16 -3 11 10 -3 9 -2 19 3 22 16 10 -4 165
-21 165 -5 0 -9 4 -9 10 0 18 27 -1 40 -28z m-54 -19 c-4 -9 -9 -13 -13 -10
-3 3 -20 -1 -37 -9 l-31 -15 25 20 c14 11 31 21 38 21 6 0 12 8 13 18 0 10 2
12 6 4 3 -7 2 -20 -1 -29z m3381 5 c-21 -14 -28 -9 -15 12 9 13 14 16 20 7 4
-6 2 -15 -5 -19z m862 -35 c0 -31 -2 -34 -9 -18 -12 28 -12 55 0 55 6 0 10
-17 9 -37z m25 -178 c-3 -88 -7 -162 -10 -164 -2 -2 -4 12 -4 32 0 21 -4 37
-10 37 -5 0 -10 15 -9 33 1 30 1 31 9 7 5 -15 8 27 9 110 1 91 4 130 11 120 6
-9 8 -78 4 -175z m-1109 165 c3 -5 2 -10 -4 -10 -5 0 -13 5 -16 10 -3 6 -2 10
4 10 5 0 13 -4 16 -10z m175 0 c0 -5 -8 -10 -17 -10 -15 0 -16 2 -3 10 19 12
20 12 20 0z m-3390 -26 c0 -8 -4 -14 -10 -14 -5 0 -10 9 -10 21 0 11 5 17 10
14 6 -3 10 -13 10 -21z m3247 0 c-3 -3 -12 -4 -19 -1 -8 3 -5 6 6 6 11 1 17
-2 13 -5z m109 -6 c-9 -5 -23 -5 -32 0 -12 6 -7 9 16 9 23 0 28 -3 16 -9z
m-510 -14 c41 -20 78 -89 68 -128 -17 -68 -108 -117 -181 -97 -52 14 -77 34
-97 76 -14 29 -15 42 -6 69 10 33 52 79 80 89 31 11 103 6 136 -9z m1451 -106
c-2 -24 -4 -5 -4 42 0 47 2 66 4 43 2 -24 2 -62 0 -85z m-1821 94 c73 -39 70
-164 -4 -204 -14 -7 -45 -13 -70 -12 -39 1 -50 6 -80 39 -31 34 -34 41 -29 84
4 37 12 52 42 78 29 25 44 31 78 29 23 -1 51 -7 63 -14z m-2503 -48 c-26 -20
-36 -17 -15 4 9 11 21 17 25 14 5 -2 0 -10 -10 -18z m-133 -19 c0 -11 -29 -11
-33 -1 -4 10 1 12 14 9 10 -3 19 -7 19 -8z m-58 -7 c-7 -7 -12 -20 -12 -31 0
-14 -5 -17 -20 -12 -13 4 -20 2 -20 -6 0 -7 -3 -10 -6 -6 -7 7 46 66 61 67 5
0 4 -5 -3 -12z m118 -8 c0 -5 -7 -10 -15 -10 -8 0 -19 -9 -25 -20 -6 -11 -17
-20 -25 -20 -20 0 -27 -15 -19 -45 5 -22 11 -25 49 -25 71 0 105 10 105 31 0
11 -7 19 -15 19 -8 0 -16 7 -16 15 -1 8 -2 21 -3 28 -1 6 -8 18 -16 25 -13 11
-12 12 5 8 55 -13 65 -18 65 -37 0 -11 7 -19 18 -20 12 0 13 -2 3 -6 -7 -3
-24 7 -37 23 -22 27 -23 27 -24 8 0 -12 7 -27 15 -34 8 -7 15 -19 15 -27 0 -8
4 -12 9 -8 5 3 12 1 16 -5 3 -5 -3 -10 -14 -10 -10 0 -21 -6 -24 -12 -2 -9
-26 -13 -73 -12 -53 0 -81 6 -118 25 -27 14 -52 31 -54 39 -3 8 6 5 26 -8 40
-29 60 -29 55 1 -3 16 4 29 29 47 27 21 52 35 66 39 1 1 2 -3 2 -9z m330 -35
c10 -13 9 -15 -9 -15 -12 0 -21 6 -21 15 0 8 4 15 9 15 5 0 14 -7 21 -15z
m-552 -48 c-18 -19 -37 -32 -41 -30 -8 5 53 63 66 63 5 0 -6 -15 -25 -33z
m172 14 c0 -6 -4 -13 -10 -16 -5 -3 -10 1 -10 9 0 9 5 16 10 16 6 0 10 -4 10
-9z m-265 -94 c-27 -23 -64 -55 -81 -72 -17 -16 -53 -48 -80 -70 -26 -22 -61
-52 -76 -67 -15 -15 -28 -25 -28 -22 0 3 -18 -13 -40 -36 -22 -23 -40 -39 -40
-37 0 3 -21 -14 -47 -38 -26 -24 -49 -42 -52 -39 -7 6 133 132 349 314 29 25
69 60 89 77 20 18 41 33 46 33 6 0 -12 -19 -40 -43z m4726 -44 c15 -4 17 -9 8
-24 -5 -11 -14 -17 -20 -14 -5 4 -9 -12 -9 -37 0 -27 -3 -38 -9 -30 -10 16 -3
62 13 81 8 11 8 15 -1 18 -7 3 -12 17 -12 31 2 26 2 26 6 3 3 -13 13 -26 24
-28z m-3121 -76 c-32 -107 -50 -156 -62 -163 -7 -5 -9 0 -5 12 3 10 20 66 38
124 44 145 41 138 46 117 3 -9 -5 -50 -17 -90z m136 76 c-3 -10 -14 -52 -25
-93 -22 -85 -49 -155 -58 -147 -3 3 5 33 16 67 28 80 51 177 43 184 -3 3 2 6
12 6 12 0 16 -6 12 -17z m220 -40 c-3 -10 -10 -38 -16 -63 -32 -124 -62 -212
-72 -202 -6 6 -5 19 5 38 8 16 24 72 36 124 29 122 28 120 41 120 6 0 9 -8 6
-17z m94 -82 c-17 -70 -69 -234 -80 -251 -22 -35 -16 2 15 95 18 55 41 131 51
168 21 75 33 64 14 -12z m240 45 c0 -65 -107 -406 -127 -406 -10 0 -11 5 -5
18 30 58 112 335 112 380 0 12 5 22 10 22 6 0 10 -6 10 -14z m95 -53 c-7 -51
-50 -215 -64 -248 -5 -11 -19 -50 -32 -87 -12 -38 -27 -68 -32 -68 -11 0 -11
-1 37 135 41 116 74 239 78 284 1 17 6 31 11 31 5 0 6 -21 2 -47z m2337 5 c-2
-24 -8 -47 -12 -51 -4 -5 -6 6 -5 25 2 18 4 41 4 51 1 9 4 17 9 17 4 0 6 -19
4 -42z m-32 -28 c0 -5 -5 -10 -11 -10 -5 0 -7 5 -4 10 3 6 8 10 11 10 2 0 4
-4 4 -10z m-5041 -62 c-19 -16 -45 -40 -59 -52 -39 -35 -350 -306 -408 -356
-29 -25 -69 -60 -89 -77 -19 -18 -41 -33 -47 -33 -12 1 62 69 208 192 22 18
52 45 68 60 15 15 28 25 28 23 0 -3 15 10 34 28 36 34 62 56 165 147 35 30 75
66 89 80 15 15 31 24 36 21 5 -2 -6 -17 -25 -33z m5028 10 c-3 -7 -5 -2 -5 12
0 14 2 19 5 13 2 -7 2 -19 0 -25z m30 -20 c-3 -7 -5 -2 -5 12 0 14 2 19 5 13
2 -7 2 -19 0 -25z m-31 -94 c-3 -8 -11 -14 -18 -14 -8 0 -9 3 -3 8 6 4 11 25
12 47 2 59 6 65 10 16 3 -24 2 -50 -1 -57z m24 11 c-7 -59 -7 -59 -9 -13 -1
40 7 85 14 76 1 -2 -2 -30 -5 -63z m-1813 45 c8 0 28 -13 44 -29 76 -77 -6
-194 -117 -167 -98 25 -98 167 -1 195 18 5 38 7 45 5 8 -2 20 -4 29 -4z m313
-10 c103 -73 19 -233 -104 -199 -50 14 -77 42 -83 88 -11 79 34 130 115 131
28 0 54 -7 72 -20z m-5451 -117 c-9 -37 -31 -122 -49 -188 -18 -66 -36 -136
-40 -155 -10 -43 -16 -66 -29 -108 -5 -18 -10 -33 -9 -35 0 -1 -6 -22 -13 -47
-15 -53 -13 -46 -23 -90 -4 -19 -16 -64 -27 -100 -10 -36 -21 -76 -23 -90 -3
-14 -26 -104 -51 -200 -25 -96 -48 -184 -50 -195 -3 -11 -11 -45 -20 -75 -8
-30 -24 -91 -36 -134 -12 -44 -32 -100 -46 -125 -62 -113 -128 -226 -134 -231
-4 -3 -11 -18 -14 -33 -4 -15 -11 -27 -17 -27 -5 0 -6 -4 -3 -10 3 -5 2 -10
-2 -10 -5 0 -23 -28 -41 -62 -49 -93 -72 -131 -89 -148 -9 -8 -1 12 17 45 19
33 43 78 55 100 61 110 95 171 162 289 72 125 76 135 134 355 113 427 349
1337 349 1346 0 3 4 4 8 1 5 -3 1 -36 -9 -73z m1765 12 c-32 -32 -73 -59 -80
-53 -2 3 7 13 21 22 15 10 35 26 46 37 10 10 23 19 29 19 5 0 -2 -11 -16 -25z
m5141 -41 c-5 -50 -4 -65 5 -59 9 6 9 2 1 -13 -8 -15 -8 -23 0 -28 8 -4 8 -9
0 -17 -6 -6 -11 -22 -11 -36 0 -15 -7 -48 -15 -75 -8 -27 -16 -68 -16 -90 l-2
-41 -7 40 c-4 22 -8 32 -9 23 0 -10 -9 -18 -18 -17 -11 0 -13 3 -5 6 6 2 12
16 12 29 0 14 7 27 15 30 8 4 15 10 15 16 0 5 -4 7 -8 4 -4 -2 -6 12 -3 32 l5
37 7 -35 6 -35 2 38 c0 20 -3 37 -9 37 -5 0 -7 7 -3 16 5 13 7 13 14 2 5 -8 9
13 9 52 1 36 2 79 4 95 2 17 4 36 5 43 0 6 4 12 7 12 4 0 3 -30 -1 -66z m22
-11 c-2 -16 -4 -3 -4 27 0 30 2 43 4 28 2 -16 2 -40 0 -55z m-5082 39 c13 -16
42 -41 64 -57 38 -26 52 -45 33 -45 -19 0 -132 103 -132 121 0 16 10 10 35
-19z m1844 -49 c-13 -21 -28 -43 -34 -50 -19 -22 -30 -38 -53 -70 -13 -18 -30
-33 -38 -33 -8 0 10 30 45 75 33 41 62 84 66 95 3 11 13 20 21 20 13 0 11 -7
-7 -37z m107 -39 c-9 -13 -24 -36 -33 -51 -21 -33 -23 -36 -67 -91 -19 -23
-37 -39 -39 -35 -4 7 48 83 99 146 8 10 19 30 25 43 5 14 14 22 20 19 7 -5 5
-15 -5 -31z m-2183 -31 c-24 -21 -64 -57 -90 -79 -27 -23 -66 -57 -88 -76 -22
-19 -51 -43 -64 -54 -13 -10 -40 -35 -61 -54 -43 -39 -76 -68 -170 -150 -34
-30 -75 -68 -91 -83 -16 -15 -29 -25 -29 -21 0 4 -8 -2 -17 -12 -17 -19 -221
-199 -272 -240 -13 -10 -40 -35 -61 -54 -21 -19 -57 -50 -79 -69 -23 -19 -63
-55 -90 -80 -27 -25 -64 -57 -81 -71 -18 -14 -44 -36 -60 -50 -72 -65 -155
-136 -172 -150 -11 -8 -39 -33 -63 -55 -23 -22 -54 -49 -68 -60 -20 -16 -73
-63 -162 -140 -6 -5 -25 -23 -43 -39 -18 -17 -32 -25 -32 -19 0 8 105 103 270
243 9 8 48 42 86 76 38 34 112 98 164 143 52 45 109 95 125 110 35 32 231 203
355 310 47 40 118 103 159 140 41 36 83 73 95 81 12 8 28 22 36 31 13 15 259
230 398 349 29 25 69 60 89 78 19 17 41 32 47 32 6 0 -8 -17 -31 -37z m2377
-78 c0 -10 -101 -149 -152 -210 -62 -74 -68 -79 -68 -64 0 8 13 28 28 45 38
39 123 150 151 197 19 32 41 49 41 32z m103 -41 c3 -3 1 -11 -4 -18 -5 -6 -33
-45 -62 -87 -87 -126 -187 -243 -187 -218 0 9 10 24 21 35 46 41 209 263 209
285 0 10 13 12 23 3z m1003 -35 c28 -26 45 -78 37 -111 -8 -30 -56 -76 -87
-84 -36 -9 -93 13 -116 46 -22 31 -26 89 -9 121 31 59 126 74 175 28z m-3484
-21 c18 -18 48 -45 67 -59 19 -15 29 -29 23 -33 -6 -3 -16 -1 -24 6 -7 7 -37
34 -65 60 -28 26 -48 49 -45 52 8 9 7 9 44 -26z m4133 2 c3 -5 -1 -10 -10 -10
-9 0 -13 5 -10 10 3 6 8 10 10 10 2 0 7 -4 10 -10z m-1428 -14 c-17 -44 -164
-260 -218 -321 -69 -77 -108 -115 -118 -115 -7 0 8 21 32 48 25 26 58 63 73
82 16 19 31 37 34 40 28 27 151 208 171 253 12 27 36 39 26 13z m1021 -16 c53
-24 78 -72 61 -117 -25 -69 -105 -100 -173 -68 -47 22 -66 50 -66 95 1 41 26
75 72 95 43 19 55 18 106 -5z m370 -2 c-6 -17 -38 -23 -38 -8 0 6 5 8 10 5 6
-3 10 -1 10 4 0 6 5 11 11 11 6 0 9 -6 7 -12z m-4158 -64 c30 -29 66 -62 80
-73 18 -15 21 -20 9 -21 -17 0 -169 136 -169 151 0 15 18 1 80 -57z m2834 -10
c-37 -67 -90 -149 -107 -165 -7 -8 -18 -21 -23 -30 -12 -21 -68 -91 -116 -143
-21 -23 -38 -44 -38 -48 0 -8 -30 -11 -30 -4 0 3 17 22 38 43 50 53 83 91 112
133 14 19 28 37 31 40 4 3 29 41 58 85 28 44 54 85 58 90 5 6 14 24 22 40 7
17 15 25 18 19 2 -7 -8 -34 -23 -60z m1543 60 c-3 -3 -12 -4 -19 -1 -8 3 -5 6
6 6 11 1 17 -2 13 -5z m-4665 -42 c-78 -71 -452 -398 -502 -439 -14 -12 -41
-36 -59 -52 -18 -17 -38 -31 -45 -31 -12 0 52 60 194 180 51 43 144 126 166
148 13 13 24 21 24 18 0 -3 13 7 29 22 15 15 59 54 96 87 37 33 77 69 89 81
11 11 25 18 29 16 4 -2 -5 -16 -21 -30z m2151 19 c-81 -67 -223 -161 -243
-161 -25 0 -6 20 44 45 30 15 85 51 122 79 38 29 73 51 77 48 5 -2 5 -7 0 -11z
m3413 -39 c-11 -10 -15 4 -8 28 l7 25 3 -23 c2 -13 1 -26 -2 -30z m-1164 16
c-7 -7 -12 -8 -12 -2 0 14 12 26 19 19 2 -3 -1 -11 -7 -17z m1185 -45 c-3 -10
-5 -2 -5 17 0 19 2 27 5 18 2 -10 2 -26 0 -35z m-4670 -85 c-24 -69 -67 -207
-207 -648 -34 -107 -70 -222 -80 -255 -11 -33 -40 -127 -65 -210 -25 -82 -50
-159 -55 -170 -5 -11 -14 -39 -20 -61 -5 -23 -26 -90 -45 -150 -20 -60 -47
-147 -62 -194 -30 -99 -46 -136 -51 -121 -2 6 23 95 56 199 52 162 102 317
207 652 13 41 42 136 65 210 22 74 45 143 50 152 5 10 14 34 19 55 20 80 53
188 61 198 4 5 11 26 15 45 4 19 29 102 56 185 27 82 49 152 49 156 0 4 5 20
12 36 23 57 19 -5 -5 -79z m3497 43 c-7 -7 -12 3 -18 34 l-6 30 14 -30 c8 -16
12 -32 10 -34z m1150 27 c4 -17 2 -28 -4 -28 -5 0 -10 14 -10 32 0 36 4 35 14
-4z m-890 0 c-8 -27 -12 -33 -19 -27 -7 8 7 49 17 49 5 0 6 -10 2 -22z m-2491
-36 c-44 -38 -225 -152 -243 -152 -24 0 -7 18 38 39 50 24 174 104 206 133 11
10 25 18 30 18 6 -1 -8 -18 -31 -38z m3370 -79 c5 -7 5 -13 0 -14 -4 0 -19 -2
-33 -5 -18 -3 -21 -2 -10 5 8 5 15 22 16 38 5 81 7 88 13 38 4 -27 10 -56 14
-62z m-5431 22 c29 -28 70 -64 92 -80 21 -16 33 -31 27 -33 -16 -5 -191 143
-191 162 0 14 18 2 72 -49z m4295 33 c-3 -8 -6 -5 -6 6 -1 11 2 17 5 13 3 -3
4 -12 1 -19z m-3720 -25 c94 -46 88 -42 80 -49 -7 -7 -177 71 -177 81 0 11 22
4 97 -32z m4873 23 c0 -8 -4 -18 -10 -21 -5 -3 -10 3 -10 14 0 12 5 21 10 21
6 0 10 -6 10 -14z m-1090 -21 c7 -8 20 -15 29 -15 14 0 14 -2 1 -10 -8 -5 -17
-6 -20 -1 -3 4 -16 15 -30 24 -17 12 -20 17 -8 17 8 0 21 -7 28 -15z m95 -15
c-3 -5 -16 -10 -28 -9 -20 1 -20 2 3 9 14 4 26 8 28 9 2 1 0 -3 -3 -9z m-4480
-125 c6 -5 28 -23 48 -39 20 -16 34 -33 31 -37 -5 -8 -18 2 -113 86 -77 68
-100 92 -94 99 4 4 32 -17 62 -46 30 -29 60 -57 66 -63z m517 58 c18 -10 35
-20 38 -24 3 -3 26 -13 53 -23 26 -10 45 -22 42 -26 -6 -10 -11 -8 -112 40
-40 19 -73 38 -73 42 0 12 16 9 52 -9z m4928 7 c0 -5 -2 -10 -4 -10 -3 0 -8 5
-11 10 -3 6 -1 10 4 10 6 0 11 -4 11 -10z m-3872 -12 c-2 -6 -33 -19 -69 -28
-82 -22 -203 -35 -194 -20 3 5 19 10 34 10 31 0 200 36 209 44 10 10 24 6 20
-6z m-500 -38 c31 0 42 -4 42 -16 0 -8 -3 -13 -7 -11 -5 3 -37 8 -73 11 -102
11 -144 21 -136 34 3 5 33 3 68 -4 35 -8 82 -14 106 -14z m4342 15 c0 -8 -4
-15 -9 -15 -13 0 -22 16 -14 24 11 11 23 6 23 -9z m24 0 c3 -8 1 -15 -4 -15
-6 0 -10 7 -10 15 0 8 2 15 4 15 2 0 6 -7 10 -15z m-3204 -12 c-1 -16 -290
-193 -315 -193 -15 0 -2 20 18 26 29 9 241 140 257 159 13 15 40 21 40 8z
m3171 -28 c6 15 8 11 7 -17 -1 -21 -5 -38 -8 -38 -10 0 -29 53 -22 64 4 7 8 3
11 -9 l4 -20 8 20z m-1886 -19 c96 -40 86 -157 -16 -187 -46 -14 -78 -7 -118
27 -52 43 -41 116 22 154 38 24 66 25 112 6z m-3721 -91 c55 -52 103 -95 108
-95 4 0 8 -7 8 -16 0 -12 -10 -8 -37 16 -59 51 -193 179 -193 185 0 15 24 -4
114 -90z m1806 66 c0 -9 -135 -45 -212 -56 -28 -4 -48 -3 -48 2 0 5 36 15 79
22 44 6 99 18 123 25 54 18 58 18 58 7z m700 -9 c0 -5 -15 -19 -32 -32 -18
-13 -37 -28 -43 -32 -34 -28 -255 -158 -268 -158 -24 0 1 22 51 46 31 15 59
30 62 33 3 3 22 15 43 26 20 11 37 23 37 27 0 5 6 8 13 8 6 1 37 21 67 45 56
44 70 52 70 37z m3054 -50 c-4 -15 -6 -31 -5 -37 1 -5 -3 -4 -10 3 -10 9 -10
15 -1 24 7 7 13 26 13 43 1 18 3 23 6 12 3 -10 1 -31 -3 -45z m-5665 -49 c48
-49 118 -110 154 -138 37 -27 67 -53 67 -57 0 -11 -33 3 -55 23 -11 10 -38 33
-60 51 -60 50 -205 191 -205 200 0 16 12 6 99 -79z m1329 64 c102 -12 128 -32
30 -22 -88 8 -152 17 -161 22 -14 8 5 24 22 18 9 -4 58 -12 109 -18z m4370 3
c-14 -22 -24 -19 -15 5 4 8 11 15 17 15 6 0 6 -7 -2 -20z m-4932 -70 c58 -27
109 -50 114 -50 6 0 10 -5 10 -11 0 -6 -9 -8 -22 -4 -41 13 -218 100 -218 108
0 12 6 9 116 -43z m4910 -8 c-11 -10 -15 4 -8 28 l7 25 3 -23 c2 -13 1 -26 -2
-30z m-1594 8 c44 -13 68 -43 68 -86 0 -76 -80 -115 -156 -75 -70 37 -70 109
-1 151 37 23 40 23 89 10z m1577 -50 c-1 -23 -2 -23 -9 5 -7 28 -8 27 -10 -15
l-2 -45 -9 33 c-11 38 6 86 22 61 5 -8 8 -25 8 -39z m-4849 -93 c33 -9 56 -24
48 -32 -7 -7 -38 5 -176 71 -51 25 -90 49 -87 54 3 4 47 -13 97 -39 51 -27
104 -51 118 -54z m1950 73 c0 -5 -9 -14 -19 -20 -11 -5 -25 -16 -33 -22 -62
-59 -336 -218 -375 -218 -23 0 -7 13 37 30 75 30 294 165 350 217 26 25 40 29
40 13z m-3183 -33 c-13 -12 -50 -44 -82 -72 -32 -27 -70 -60 -84 -73 -14 -13
-48 -42 -75 -65 -27 -23 -54 -47 -60 -53 -6 -5 -36 -32 -66 -59 -30 -26 -84
-74 -120 -106 -87 -77 -120 -102 -126 -96 -3 2 18 24 47 48 28 24 64 55 79 69
15 14 54 48 86 75 58 50 72 63 138 123 20 18 36 30 36 28 0 -3 15 11 34 29 18
19 35 35 37 35 4 0 99 85 154 138 6 5 14 8 18 5 4 -3 -3 -15 -16 -26z m6036 3
c-3 -11 -7 -20 -9 -20 -2 0 -4 9 -4 20 0 11 4 20 9 20 5 0 7 -9 4 -20z m-3633
1 c0 -12 -44 -26 -165 -50 -135 -27 -187 -32 -182 -18 2 6 19 12 38 14 61 6
216 34 260 48 24 8 45 14 47 14 1 1 2 -3 2 -8z m880 -28 c-1 -12 -156 -122
-255 -182 -131 -78 -152 -89 -190 -105 -47 -20 -45 -4 3 20 52 27 196 108 202
114 3 3 21 14 40 24 19 11 46 30 60 43 14 13 28 23 31 23 4 0 24 16 45 35 37
32 64 45 64 28z m-1575 -24 c61 -7 115 -16 120 -22 9 -8 -92 -3 -153 7 -9 2
-38 7 -64 10 -26 4 -51 12 -54 18 -5 7 1 9 17 5 13 -3 74 -11 134 -18z m4333
7 c-8 -9 -15 -10 -19 -4 -4 6 -9 5 -12 -3 -4 -10 -6 -9 -6 4 -1 12 7 17 24 17
22 0 24 -2 13 -14z m-2070 -17 c86 -30 86 -163 -1 -200 -102 -43 -203 80 -136
165 35 44 79 55 137 35z m2062 -19 c0 -5 -12 -10 -26 -10 -14 0 -23 4 -19 10
3 6 15 10 26 10 10 0 19 -4 19 -10z m-5815 -45 c14 -17 25 -42 25 -54 0 -59
-61 -110 -115 -97 -56 14 -88 83 -61 133 19 37 35 50 66 55 40 6 59 -2 85 -37z
m2225 17 c0 -10 -206 -59 -280 -67 -30 -3 -67 -8 -82 -11 -16 -3 -28 -1 -28 4
0 5 26 13 58 16 80 10 264 46 282 57 19 11 50 12 50 1z m3544 -1 c3 -5 -1 -11
-9 -14 -9 -4 -12 -1 -8 9 6 16 10 17 17 5z m961 -11 c3 -5 1 -10 -4 -10 -6 0
-11 5 -11 10 0 6 2 10 4 10 3 0 8 -4 11 -10z m-6006 -34 c58 -33 185 -93 245
-116 42 -16 24 -24 -21 -10 -44 15 -313 148 -313 155 0 13 34 2 89 -29z m5071
24 c0 -5 -5 -10 -11 -10 -5 0 -7 5 -4 10 3 6 8 10 11 10 2 0 4 -4 4 -10z
m-4370 -26 c52 -7 114 -14 138 -14 23 0 42 -4 42 -10 0 -12 -44 -12 -130 0
-36 5 -85 11 -110 15 -59 8 -70 12 -70 26 0 6 7 8 17 4 10 -3 61 -13 113 -21z
m4337 10 c-3 -3 -12 -4 -19 -1 -8 3 -5 6 6 6 11 1 17 -2 13 -5z m-23 -46 c-5
-7 -1 -9 9 -5 22 8 21 5 -4 -24 -11 -13 -18 -31 -16 -41 3 -10 1 -18 -3 -18
-5 0 -13 -12 -19 -27 -6 -16 -9 -19 -7 -8 2 11 7 29 12 39 5 14 4 17 -4 12 -8
-5 -12 0 -12 14 0 11 7 23 15 26 8 4 15 17 15 31 0 14 4 22 10 18 6 -4 7 -11
4 -17z m-5106 -30 c16 -20 251 -130 305 -143 27 -7 43 -22 34 -31 -7 -8 -132
45 -257 109 -126 64 -145 77 -113 77 11 0 25 -6 31 -12z m-834 -58 c63 -24 71
-125 13 -160 -58 -36 -119 -19 -138 37 -28 85 43 155 125 123z m391 -26 c54
-58 15 -139 -67 -139 -32 0 -45 6 -64 28 -31 36 -30 68 2 106 35 42 93 44 129
5z m3801 7 c22 -13 33 -30 38 -54 21 -111 -128 -161 -201 -67 -15 19 -16 65
-3 90 26 48 112 64 166 31z m1691 -35 c-1 -13 -8 -30 -14 -37 -6 -8 -14 -31
-18 -51 -7 -37 -25 -53 -25 -23 0 8 -5 15 -12 15 -6 0 -8 3 -4 8 4 4 13 7 19
7 7 0 13 11 14 25 2 23 2 23 -6 5 -9 -19 -10 -19 -10 3 -1 13 5 22 14 22 8 0
15 9 15 19 0 16 8 25 28 30 1 1 1 -10 -1 -23z m-3427 -5 c0 -5 -30 -14 -67
-21 -38 -6 -82 -16 -99 -21 -25 -8 -247 -39 -276 -39 -4 0 -8 4 -8 9 0 5 26
12 58 15 31 4 77 9 102 12 65 8 242 43 248 49 9 8 42 6 42 -4z m2097 -23 c-3
-8 -6 -5 -6 6 -1 11 2 17 5 13 3 -3 4 -12 1 -19z m71 15 c-10 -2 -26 -2 -35 0
-10 3 -2 5 17 5 19 0 27 -2 18 -5z m-3063 -27 c50 -8 111 -17 137 -18 27 -2
48 -8 48 -14 0 -7 -32 -7 -107 2 -140 17 -213 33 -213 46 0 6 10 8 23 5 12 -3
63 -13 112 -21z m3162 8 c-3 -3 -12 -4 -19 -1 -8 3 -5 6 6 6 11 1 17 -2 13 -5z
m-205 -34 c-12 -11 -24 -20 -27 -20 -3 0 0 9 7 20 7 11 19 20 27 20 11 0 9 -6
-7 -20z m244 -27 c-4 -4 -11 -1 -16 7 -16 25 -11 35 7 17 9 -9 13 -20 9 -24z
m-2321 -24 c-113 -37 -446 -85 -432 -62 4 6 46 14 94 18 49 4 147 19 218 35
153 32 204 36 120 9z m1006 -5 c36 -18 63 -75 54 -113 -4 -14 -18 -38 -33 -53
-21 -23 -35 -28 -72 -28 -37 0 -51 5 -72 28 -52 54 -45 126 16 163 38 23 67
24 107 3z m1336 10 c-3 -3 -12 -4 -19 -1 -8 3 -5 6 6 6 11 1 17 -2 13 -5z
m1030 0 c-3 -3 -12 -4 -19 -1 -8 3 -5 6 6 6 11 1 17 -2 13 -5z m-4139 -50 c40
-3 75 -11 78 -16 10 -16 -173 5 -324 38 -13 2 -21 8 -18 13 3 4 47 0 98 -10
51 -10 126 -21 166 -25z m-1449 12 c56 -30 66 -99 20 -145 -42 -43 -98 -43
-140 -1 -25 24 -29 36 -27 70 4 74 78 111 147 76z m5598 -8 c-3 -8 -6 -5 -6 6
-1 11 2 17 5 13 3 -3 4 -12 1 -19z m-6185 -120 c129 -128 205 -196 279 -250
40 -29 50 -37 82 -63 48 -40 96 -75 104 -75 5 0 18 -9 30 -19 11 -10 33 -26
49 -35 16 -9 43 -25 59 -36 17 -11 44 -26 61 -34 17 -8 35 -19 38 -25 4 -6 16
-11 27 -11 10 0 19 -3 19 -7 0 -9 69 -45 165 -88 33 -14 77 -35 97 -46 20 -10
44 -19 52 -19 9 0 16 -5 16 -11 0 -5 5 -7 10 -4 6 4 16 2 23 -3 7 -5 50 -22
97 -38 54 -18 77 -30 63 -32 -12 -2 -66 13 -120 33 -54 20 -113 42 -130 48
-18 7 -33 15 -33 19 0 5 -7 8 -15 8 -16 0 -205 92 -271 132 -22 12 -56 32 -76
42 -21 11 -38 23 -38 28 0 4 -6 8 -13 8 -8 0 -39 18 -70 40 -30 22 -60 40 -66
40 -6 0 -11 5 -11 10 0 6 -8 14 -17 17 -21 8 -37 21 -61 46 -9 9 -20 17 -25
17 -5 0 -14 6 -22 13 -7 6 -28 23 -46 37 -29 22 -74 61 -140 123 -10 9 -22 17
-25 17 -3 0 -55 50 -115 112 -96 98 -121 128 -105 128 3 0 60 -55 128 -122z
m4857 90 c-1 -24 -3 -27 -6 -10 -2 12 -9 22 -14 22 -5 0 -9 5 -9 10 0 6 7 10
15 10 11 0 15 -10 14 -32z m1291 17 c0 -8 -4 -15 -10 -15 -5 0 -10 7 -10 15 0
8 5 15 10 15 6 0 10 -7 10 -15z m-5085 -31 c40 -43 29 -129 -19 -152 -40 -19
-53 -20 -83 -5 -35 16 -53 50 -53 96 1 79 102 118 155 61z m5069 2 c10 4 12
-2 9 -20 -3 -15 -12 -26 -22 -26 -14 0 -14 -2 -1 -10 12 -8 11 -10 -7 -10 -12
0 -24 3 -26 8 -6 9 19 33 26 26 3 -3 8 -1 12 5 3 6 1 11 -4 11 -6 0 -11 8 -10
18 0 9 3 12 5 5 3 -7 11 -10 18 -7z m-6422 -24 c-11 -10 -45 -39 -77 -67 -32
-27 -66 -57 -75 -65 -9 -8 -47 -42 -85 -75 -39 -33 -74 -65 -80 -71 -8 -9 -82
-73 -185 -161 -14 -11 -43 -37 -65 -57 -22 -19 -44 -36 -50 -36 -10 0 59 67
122 120 46 38 143 122 172 149 14 13 50 44 80 70 115 99 222 193 235 207 6 7
15 10 19 7 4 -3 -1 -12 -11 -21z m5178 -12 c0 -5 -2 -10 -4 -10 -3 0 -8 5 -11
10 -3 6 -1 10 4 10 6 0 11 -4 11 -10z m220 0 c0 -5 -7 -10 -16 -10 -8 0 -12 5
-9 10 3 6 10 10 16 10 5 0 9 -4 9 -10z m-197 -27 c-7 -2 -19 -2 -25 0 -7 3 -2
5 12 5 14 0 19 -2 13 -5z m174 1 c-3 -3 -12 -4 -19 -1 -8 3 -5 6 6 6 11 1 17
-2 13 -5z m-3783 -15 c31 -14 60 -72 52 -104 -15 -59 -91 -99 -138 -74 -40 21
-58 50 -58 92 0 77 71 119 144 86z m3746 1 c0 -5 -5 -10 -11 -10 -5 0 -7 5 -4
10 3 6 8 10 11 10 2 0 4 -4 4 -10z m1060 -15 c0 -9 -8 -12 -20 -10 -15 3 -24
-3 -30 -18 -8 -21 -9 -21 -9 6 -1 18 4 27 14 27 8 0 15 4 15 10 0 5 7 7 15 4
8 -4 15 -12 15 -19z m-1150 5 c0 -5 -2 -10 -4 -10 -3 0 -8 5 -11 10 -3 6 -1
10 4 10 6 0 11 -4 11 -10z m53 3 c-7 -2 -19 -2 -25 0 -7 3 -2 5 12 5 14 0 19
-2 13 -5z m-1486 -38 c16 -18 23 -39 23 -70 0 -36 -5 -47 -31 -69 -70 -60
-179 -16 -179 71 1 41 11 59 50 87 37 26 107 16 137 -19z m2515 -40 c3 -27 1
-34 -12 -32 -9 1 -16 -7 -18 -22 -2 -14 -11 -35 -19 -47 -8 -13 -12 -28 -8
-34 3 -5 1 -10 -4 -10 -6 0 -11 19 -10 43 0 23 3 36 6 30 2 -7 9 -13 14 -13 6
0 7 5 4 11 -8 12 14 69 26 69 5 0 9 9 9 20 0 32 7 23 12 -15z m33 9 c-9 -9
-19 -13 -23 -10 -3 4 0 11 8 16 24 15 33 11 15 -6z m-5118 -50 c34 -37 38 -68
16 -106 -27 -46 -64 -63 -108 -48 -19 6 -37 20 -40 31 -4 10 -11 19 -16 19 -5
0 -9 18 -9 40 0 22 4 40 9 40 5 0 12 9 16 19 7 24 51 42 85 35 14 -3 35 -16
47 -30z m2988 26 c7 0 27 -12 44 -26 24 -20 31 -34 31 -61 0 -75 -55 -120
-133 -110 -84 11 -124 98 -74 160 22 28 78 49 105 41 8 -2 20 -4 27 -4z
m-3892 -37 c-7 -2 -19 -2 -25 0 -7 3 -2 5 12 5 14 0 19 -2 13 -5z m1702 -5
c38 -17 52 -78 28 -126 -15 -31 -24 -37 -55 -40 -50 -4 -75 11 -88 56 -15 50
0 89 42 107 41 18 41 18 73 3z m-1801 -6 c2 -4 -5 -9 -17 -9 -17 -2 -19 0 -7
7 18 12 18 12 24 2z m-36 -36 c-10 -7 -18 -18 -18 -25 0 -6 -7 -11 -15 -11 -8
0 -15 5 -15 11 0 5 4 8 9 5 5 -3 11 3 14 14 3 11 13 20 24 20 17 -1 17 -1 1
-14z m197 4 c3 -6 -1 -7 -9 -4 -18 7 -21 14 -7 14 6 0 13 -4 16 -10z m1935 -5
c36 -19 50 -43 50 -90 0 -52 -36 -85 -92 -85 -24 0 -51 6 -60 14 -40 30 -45
103 -10 144 31 34 67 40 112 17z m869 -12 c66 -61 36 -165 -51 -179 -37 -6
-84 12 -108 41 -21 25 -17 98 6 123 41 45 114 52 153 15z m-2765 -18 c3 -8 1
-15 -3 -15 -5 0 -11 7 -15 15 -3 8 -1 15 3 15 5 0 11 -7 15 -15z m2455 -14
c81 -58 35 -183 -69 -189 -39 -3 -49 1 -76 27 -39 38 -49 82 -29 125 32 66
109 83 174 37z m3344 9 c3 -11 6 -24 7 -27 1 -4 -3 -9 -9 -11 -6 -2 -8 3 -5
11 3 8 1 18 -5 22 -13 8 -14 25 -2 25 5 0 11 -9 14 -20z m-4750 -1 c27 -12 57
-67 57 -102 0 -13 -15 -40 -34 -60 -40 -43 -81 -49 -126 -17 -54 39 -52 137 3
170 36 23 65 25 100 9z m4720 -38 c-5 -3 -15 -15 -21 -26 -6 -11 -12 -14 -12
-7 0 18 34 63 39 50 2 -6 -1 -13 -6 -17z m-5772 -122 c-25 -40 -27 -33 -6 18
8 19 16 54 17 77 2 37 2 36 5 -10 3 -39 -1 -60 -16 -85z m3447 120 c42 -14 76
-69 67 -108 -15 -71 -98 -110 -161 -76 -19 10 -36 26 -39 36 -4 11 -11 19 -16
19 -5 0 -9 18 -9 40 0 22 4 40 9 40 5 0 12 8 16 19 5 17 49 38 86 40 9 1 30
-4 47 -10z m2335 -26 c-10 -25 -42 -58 -49 -50 -3 3 4 14 15 24 12 9 21 23 21
30 0 7 4 13 10 13 5 0 6 -8 3 -17z m-59 -38 c-4 -8 -11 -15 -16 -15 -6 0 -5 6
2 15 7 8 14 15 16 15 2 0 1 -7 -2 -15z m-5995 -38 c1 -5 -3 -5 -9 -2 -5 3 -10
16 -9 28 0 21 1 21 9 2 5 -11 9 -24 9 -28z m5990 -5 c-10 -2 -20 -17 -23 -37
-4 -21 -14 -36 -26 -40 -11 -3 -19 -9 -19 -13 2 -17 -14 -51 -27 -56 -18 -7
-18 2 2 21 9 9 13 25 10 37 -3 12 -1 28 4 36 8 13 10 12 10 -3 0 -17 1 -16 21
2 12 11 18 24 15 29 -12 20 5 40 27 34 17 -5 18 -7 6 -10z m-4105 -45 c24 -19
29 -31 29 -67 0 -38 -5 -48 -34 -73 -29 -24 -41 -28 -77 -24 -72 8 -112 61
-91 124 20 62 117 85 173 40z m-1652 -19 c-7 -7 -12 -8 -12 -2 0 14 12 26 19
19 2 -3 -1 -11 -7 -17z m1941 0 c10 -5 25 -25 33 -44 12 -29 12 -38 -2 -72
-41 -103 -199 -72 -192 38 4 80 83 118 161 78z m-1963 -8 c0 -5 -4 -10 -10
-10 -5 0 -10 5 -10 10 0 6 5 10 10 10 6 0 10 -4 10 -10z m2900 -9 c0 -5 9 -12
20 -16 12 -4 24 -22 32 -47 10 -35 10 -45 -8 -76 -26 -49 -81 -71 -132 -52
-50 18 -71 47 -72 97 0 33 6 48 31 72 26 26 38 31 80 31 27 0 49 -4 49 -9z
m-2960 -15 c0 -2 -7 -7 -16 -10 -8 -3 -12 -2 -9 4 6 10 25 14 25 6z m37 -2
c-3 -3 -12 -4 -19 -1 -8 3 -5 6 6 6 11 1 17 -2 13 -5z m5708 -4 c-3 -5 -11
-10 -16 -10 -6 0 -7 5 -4 10 3 6 11 10 16 10 6 0 7 -4 4 -10z m-6698 -33 c-7
-7 -24 -21 -37 -32 l-25 -20 15 20 c25 35 45 53 53 48 4 -2 1 -10 -6 -16z
m3556 -4 c18 -9 37 -23 44 -32 25 -33 9 -120 -27 -148 -45 -35 -128 -15 -156
38 -15 29 -17 99 -3 99 4 0 10 8 14 19 5 16 48 37 83 40 7 1 27 -6 45 -16z
m3112 -13 c0 -16 -3 -30 -7 -30 -5 0 -8 14 -8 30 0 17 3 30 8 30 4 0 7 -13 7
-30z m-29 -41 c-7 -53 -16 -64 -12 -13 5 54 5 54 11 54 3 0 4 -19 1 -41z
m-1791 -46 c-30 -31 -34 -33 -27 -12 5 13 19 28 30 34 12 5 22 17 23 25 0 10
2 11 6 3 2 -7 -12 -29 -32 -50z m205 33 c0 -3 -4 -8 -10 -11 -5 -3 -10 -1 -10
4 0 6 5 11 10 11 6 0 10 -2 10 -4z m1560 -3 c0 -5 -4 -15 -10 -23 -5 -8 -6
-17 -2 -20 4 -3 -5 -17 -20 -32 -19 -18 -28 -22 -28 -12 0 8 5 14 11 14 5 0 8
4 4 10 -3 5 -13 7 -23 4 -14 -5 -14 -4 -3 4 8 6 20 8 28 5 9 -4 11 0 7 11 -3
9 -1 16 5 16 6 0 11 7 11 15 0 8 5 15 10 15 6 0 10 -3 10 -7z m-4973 -39 c-3
-3 -12 -4 -19 -1 -8 3 -5 6 6 6 11 1 17 -2 13 -5z m-84 -11 c-7 -2 -13 -11
-13 -19 0 -8 -5 -14 -11 -14 -6 0 -19 -10 -29 -22 -10 -13 -21 -20 -24 -17 -3
3 3 14 14 25 12 10 28 27 38 37 9 9 21 17 27 16 5 0 4 -3 -2 -6z m134 1 c-3
-3 -12 -4 -19 -1 -8 3 -5 6 6 6 11 1 17 -2 13 -5z m3400 -26 c-3 -8 -6 -5 -6
6 -1 11 2 17 5 13 3 -3 4 -12 1 -19z m-3362 -9 c11 -17 -1 -21 -15 -4 -8 9 -8
15 -2 15 6 0 14 -5 17 -11z m4811 -26 c-6 -20 -10 -23 -16 -13 -5 8 -4 22 2
33 13 26 22 14 14 -20z m-4772 -19 c3 -8 2 -12 -4 -9 -6 3 -10 10 -10 16 0 14
7 11 14 -7z m3058 -24 c4 -46 -2 -51 -19 -15 -6 14 -7 25 -2 25 5 0 9 7 9 15
0 31 8 14 12 -25z m1688 22 c0 -11 -9 -27 -20 -37 -15 -14 -20 -15 -20 -4 0 8
-11 2 -25 -15 -14 -16 -27 -27 -29 -25 -8 8 43 59 56 57 7 -2 14 7 16 20 4 26
22 30 22 4z m-6676 -39 c10 -25 3 -23 -17 3 -13 18 -14 22 -3 18 8 -3 17 -13
20 -21z m45 -13 c10 -16 20 -27 24 -24 3 3 10 -4 17 -15 8 -15 8 -21 0 -21 -6
0 -8 -5 -5 -10 4 -6 11 -8 16 -5 5 4 9 1 9 -4 0 -15 -19 -14 -35 3 -9 9 -10
17 -4 23 7 7 -1 13 -23 18 -18 4 -27 9 -21 12 9 3 8 11 -3 29 -10 15 -12 24
-5 24 6 0 19 -13 30 -30z m1891 26 c0 -3 -4 -8 -10 -11 -5 -3 -10 -1 -10 4 0
6 5 11 10 11 6 0 10 -2 10 -4z m3320 -16 c0 -11 -4 -20 -9 -20 -5 0 -7 9 -4
20 3 11 7 20 9 20 2 0 4 -9 4 -20z m-3315 -20 c3 -5 1 -10 -4 -10 -6 0 -11 5
-11 10 0 6 2 10 4 10 3 0 8 -4 11 -10z m4692 -22 c-3 -8 -6 -5 -6 6 -1 11 2
17 5 13 3 -3 4 -12 1 -19z m-1622 2 c3 -6 -1 -7 -9 -4 -18 7 -21 14 -7 14 6 0
13 -4 16 -10z m-3366 -48 c1 -7 -3 -10 -9 -7 -5 3 -10 18 -9 33 0 24 1 25 9 7
5 -11 9 -26 9 -33z m301 44 c0 -3 -4 -8 -10 -11 -5 -3 -10 -1 -10 4 0 6 5 11
10 11 6 0 10 -2 10 -4z m4616 -12 c-4 -9 -1 -23 5 -30 9 -11 7 -14 -10 -14
-13 0 -21 -6 -21 -18 0 -19 -34 -45 -44 -34 -4 3 3 15 16 25 13 10 16 15 8 11
-8 -5 -3 7 13 25 15 18 27 37 27 42 0 5 3 9 6 9 3 0 3 -7 0 -16z m-1526 -4 c0
-5 -5 -10 -11 -10 -5 0 -7 5 -4 10 3 6 8 10 11 10 2 0 4 -4 4 -10z m169 -11
c-22 -14 -33 -10 -19 6 7 8 17 12 22 9 6 -4 5 -10 -3 -15z m1386 12 c3 -5 1
-12 -5 -16 -5 -3 -10 1 -10 9 0 18 6 21 15 7z m-4660 -20 c3 -5 1 -12 -5 -16
-5 -3 -10 1 -10 9 0 18 6 21 15 7z m-1795 -23 c-3 -36 0 -44 10 -28 6 10 10
11 10 3 0 -7 7 -13 15 -13 9 0 15 -9 15 -23 0 -31 9 -38 31 -26 15 7 19 6 19
-5 0 -10 -6 -13 -17 -9 -11 4 -14 3 -9 -5 4 -7 19 -12 34 -12 21 0 30 -7 40
-30 8 -17 18 -28 23 -24 5 3 9 0 9 -5 0 -6 -6 -11 -12 -10 -27 1 -43 15 -43
34 0 15 -8 21 -28 23 -16 2 -31 10 -34 18 -3 8 -15 14 -27 14 -16 0 -18 2 -7
9 8 5 11 16 8 26 -4 9 -10 14 -15 11 -4 -2 -14 -1 -22 4 -16 10 -23 70 -8 70
5 0 9 -10 8 -22z m5030 8 c0 -8 -61 -12 -66 -4 -3 4 11 8 30 8 20 0 36 -2 36
-4z m-3494 -44 c-4 -3 -14 2 -24 12 -16 18 -16 18 6 6 13 -6 21 -14 18 -18z
m241 -4 c-3 -7 -5 -2 -5 12 0 14 2 19 5 13 2 -7 2 -19 0 -25z m-230 -30 c-3
-8 -6 -5 -6 6 -1 11 2 17 5 13 3 -3 4 -12 1 -19z m189 7 c-23 -17 -36 -19 -36
-6 0 5 8 12 18 14 32 9 37 6 18 -8z m4578 -39 c-13 -6 -24 -16 -24 -23 0 -7
-4 -13 -8 -13 -20 0 -19 14 5 40 20 23 28 26 38 17 11 -10 9 -14 -11 -21z
m-4707 8 c-3 -3 -12 -4 -19 -1 -8 3 -5 6 6 6 11 1 17 -2 13 -5z m63 -4 c-20
-5 -39 -5 -44 1 -6 5 7 9 35 8 l44 -1 -35 -8z m907 -26 c-3 -3 -12 -4 -19 -1
-8 3 -5 6 6 6 11 1 17 -2 13 -5z m98 -23 c-6 -5 -25 10 -25 20 0 5 6 4 14 -3
8 -7 12 -15 11 -17z m-2568 -13 c-3 -8 -6 -5 -6 6 -1 11 2 17 5 13 3 -3 4 -12
1 -19z m3783 -3 c37 -27 35 -32 -4 -14 -14 7 -27 18 -30 25 -7 19 -5 18 34
-11z m-1395 -5 c-10 -11 -23 -20 -28 -20 -6 0 0 9 13 20 13 11 25 20 28 20 3
0 -3 -9 -13 -20z m1265 16 c0 -2 -7 -7 -16 -10 -8 -3 -12 -2 -9 4 6 10 25 14
25 6z m2474 -10 c-21 -15 -30 -14 -19 3 3 6 14 11 23 11 13 0 13 -2 -4 -14z
m-3520 -12 c5 -14 4 -15 -9 -4 -17 14 -19 20 -6 20 5 0 12 -7 15 -16z m-2459
-74 c18 0 47 -29 40 -41 -5 -8 16 -14 38 -10 4 0 7 -3 7 -9 0 -5 -5 -10 -11
-10 -5 0 -7 -5 -4 -10 4 -6 10 -8 15 -5 4 3 19 0 32 -5 21 -10 21 -10 -5 -5
-26 5 -28 4 -22 -17 l7 -23 -21 24 c-11 13 -21 28 -21 33 0 4 -7 8 -15 8 -8 0
-15 8 -16 18 0 15 -2 14 -9 -3 -8 -17 -9 -15 -7 10 1 20 -3 30 -13 31 -8 0
-24 2 -35 3 l-20 2 20 9 c17 7 17 9 3 9 -10 1 -18 8 -18 17 0 11 -6 14 -20 9
-25 -8 -26 3 -3 20 15 11 21 8 41 -21 12 -19 29 -34 37 -34z m3462 64 c-3 -3
-12 -4 -19 -1 -8 3 -5 6 6 6 11 1 17 -2 13 -5z m-17 -20 c0 -3 -7 -12 -15 -20
-16 -17 -18 -14 -9 10 6 15 24 23 24 10z m2501 -15 c-11 -11 -28 -20 -38 -22
-10 -1 -24 -6 -30 -10 -7 -5 -13 -4 -13 1 0 5 11 14 25 20 14 6 25 16 25 21 0
4 11 9 26 9 25 0 25 -1 5 -19z m-3464 -21 c-3 -7 -5 -2 -5 12 0 14 2 19 5 13
2 -7 2 -19 0 -25z m1214 -25 c-12 -20 -14 -14 -5 12 4 9 9 14 11 11 3 -2 0
-13 -6 -23z m2219 7 c-8 -5 -19 -10 -25 -10 -5 0 -3 5 5 10 8 5 20 10 25 10 6
0 3 -5 -5 -10z m-3425 -36 c-3 -20 -13 -43 -21 -51 -18 -18 -18 -13 2 26 9 17
13 38 10 46 -3 8 -1 15 5 15 7 0 9 -13 4 -36z m-266 -57 c1 -4 -5 -2 -12 4 -7
7 -14 26 -14 43 l-2 31 14 -35 c7 -19 14 -39 14 -43z m3586 43 c-10 -11 -24
-20 -32 -20 -7 0 -18 -12 -24 -27 -5 -14 -17 -32 -27 -39 -9 -8 -13 -14 -9
-14 4 0 -1 -10 -13 -22 -11 -12 -23 -19 -26 -15 -4 3 1 13 10 22 9 9 16 22 16
28 0 14 112 119 119 112 2 -3 -4 -14 -14 -25z m55 5 c-7 -8 -17 -15 -23 -15
-5 0 -2 9 8 20 21 23 35 19 15 -5z m-2446 0 c3 -8 1 -15 -4 -15 -6 0 -10 7
-10 15 0 8 2 15 4 15 2 0 6 -7 10 -15z m4 -50 c-3 -3 -9 2 -12 12 -6 14 -5 15
5 6 7 -7 10 -15 7 -18z m270 0 c-6 -14 -13 -24 -14 -22 -6 6 9 47 17 47 5 0 3
-11 -3 -25z m2115 5 c-10 -11 -24 -20 -33 -20 -11 1 -8 6 9 20 30 26 46 26 24
0z m-3383 -40 c-8 -5 -17 -7 -19 -4 -3 3 1 9 9 14 8 5 17 7 19 4 3 -3 -1 -9
-9 -14z m1028 -5 c-3 -3 -9 2 -12 12 -6 14 -5 15 5 6 7 -7 10 -15 7 -18z
m-3308 5 c0 -5 -7 -10 -16 -10 -8 0 -12 5 -9 10 3 6 10 10 16 10 5 0 9 -4 9
-10z m50 -15 c7 -8 18 -15 25 -15 8 0 11 -8 8 -20 -4 -15 0 -20 14 -20 21 0
63 -27 63 -41 0 -5 -7 -9 -16 -9 -10 0 -14 6 -11 14 4 11 -3 16 -26 18 -23 2
-33 9 -35 23 -2 11 -16 30 -31 42 -14 12 -21 22 -15 23 6 0 17 -7 24 -15z
m3457 9 c-3 -3 -12 -4 -19 -1 -8 3 -5 6 6 6 11 1 17 -2 13 -5z m-3474 -30 c9
-4 17 -10 17 -16 0 -9 -20 0 -50 22 -13 10 -13 11 0 6 8 -3 23 -9 33 -12z
m2124 10 c-3 -3 -12 -4 -19 -1 -8 3 -5 6 6 6 11 1 17 -2 13 -5z m83 -1 c0 -5
-14 -8 -30 -9 -39 -1 -39 11 0 14 17 1 30 -1 30 -5z m1130 -3 c18 -12 2 -12
-25 0 -13 6 -15 9 -5 9 8 0 22 -4 30 -9z m2160 0 c-8 -5 -19 -10 -25 -10 -5 0
-3 5 5 10 8 5 20 10 25 10 6 0 3 -5 -5 -10z m-2113 -6 c-3 -3 -12 -4 -19 -1
-8 3 -5 6 6 6 11 1 17 -2 13 -5z m2078 -32 c3 -8 3 -17 1 -20 -9 -8 -36 7 -36
21 0 18 28 17 35 -1z m-55 -21 c0 -6 -4 -13 -10 -16 -5 -3 -10 1 -10 9 0 9 5
16 10 16 6 0 10 -4 10 -9z m23 -26 c-7 -21 -13 -19 -13 6 0 11 4 18 10 14 5
-3 7 -12 3 -20z m-5346 9 c-3 -3 -12 -4 -19 -1 -8 3 -5 6 6 6 11 1 17 -2 13
-5z m98 -41 c7 -7 21 -13 29 -13 9 0 16 -5 16 -10 0 -12 -53 -1 -58 12 -2 4
-12 8 -23 8 -21 0 -22 1 -13 24 6 16 9 14 49 -21z m5225 17 c0 -5 -12 -10 -27
-10 -35 0 -50 -10 -55 -35 -2 -13 -11 -20 -26 -19 -15 0 -21 -4 -18 -13 6 -14
-3 -16 -41 -13 -13 1 -23 -4 -23 -10 0 -7 7 -10 15 -6 8 3 15 1 15 -4 0 -6 -9
-10 -20 -10 -13 0 -20 7 -20 20 0 16 7 20 30 20 19 0 30 5 30 14 0 8 7 16 15
20 8 3 15 1 15 -4 0 -6 5 -10 11 -10 6 0 9 6 6 13 -8 22 17 45 54 50 18 2 35
5 37 5 1 1 2 -2 2 -8z m-45 -30 c3 -5 1 -10 -4 -10 -6 0 -11 5 -11 10 0 6 2
10 4 10 3 0 8 -4 11 -10z m-5145 -41 c0 -6 -4 -7 -10 -4 -5 3 -10 11 -10 16 0
6 5 7 10 4 6 -3 10 -11 10 -16z m50 11 c0 -5 -4 -10 -10 -10 -5 0 -10 5 -10
10 0 6 5 10 10 10 6 0 10 -4 10 -10z m19 -58 c-12 -5 -39 17 -39 30 0 5 11 1
24 -9 13 -10 20 -20 15 -21z m29 18 c7 -11 8 -20 3 -20 -5 0 -12 7 -15 16 -3
8 -10 12 -16 9 -5 -3 -10 -1 -10 4 0 18 24 12 38 -9z m4877 -10 c-3 -5 -12
-10 -18 -10 -7 0 -6 4 3 10 19 12 23 12 15 0z m-4875 -30 c0 -5 -7 -7 -15 -4
-8 4 -15 8 -15 10 0 2 7 4 15 4 8 0 15 -4 15 -10z m70 -2 c0 -4 -4 -8 -9 -8
-6 0 -12 4 -15 8 -3 5 1 9 9 9 8 0 15 -4 15 -9z m4773 6 c-7 -3 -9 -12 -6 -20
3 -8 1 -14 -5 -14 -5 0 -12 6 -15 14 -6 14 7 24 28 24 6 0 5 -2 -2 -4z m56 3
c-2 -1 -13 -9 -24 -17 -19 -14 -19 -14 -6 3 7 9 18 17 24 17 6 0 8 -1 6 -3z
m-103 -32 c-5 -19 -3 -23 9 -19 8 4 15 1 15 -5 0 -16 -25 -14 -40 4 -9 11 -9
17 2 29 18 21 21 20 14 -9z m-4715 -4 c-11 -7 -10 -11 5 -20 11 -6 14 -11 6
-11 -21 0 -45 27 -29 33 20 9 33 7 18 -2z m4689 -25 c0 -2 -9 -6 -20 -9 -11
-3 -20 -1 -20 4 0 5 9 9 20 9 11 0 20 -2 20 -4z m-60 -21 c-7 -8 -18 -15 -24
-15 -6 0 -2 7 8 15 25 19 32 19 16 0z m-4510 -6 c11 -7 7 -8 -13 -3 -15 3 -33
2 -40 -4 -8 -7 -16 -6 -24 3 -9 10 -4 13 26 13 20 0 43 -4 51 -9z m4575 1
c-28 -12 -37 -12 -30 0 3 6 16 10 28 9 21 0 21 -1 2 -9z m-4559 -38 c7 -10 13
-11 17 -5 4 7 21 3 47 -9 48 -24 48 -33 1 -17 -27 9 -35 9 -42 -2 -6 -10 -9
-11 -9 -1 0 6 -7 12 -15 12 -8 0 -15 7 -15 15 0 8 -9 15 -19 15 -11 0 -23 5
-26 10 -10 17 48 -1 61 -18z m4495 1 c-8 -15 -10 -15 -11 -2 0 17 10 32 18 25
2 -3 -1 -13 -7 -23z m-89 -16 c-12 -13 -19 -27 -15 -30 3 -4 -6 -7 -20 -7 -18
0 -25 -4 -21 -14 3 -7 -1 -16 -9 -19 -11 -4 -14 1 -13 19 0 13 5 24 9 24 10 0
71 43 76 53 1 5 6 6 9 3 3 -4 -4 -17 -16 -29z m61 26 c-7 -2 -19 -2 -25 0 -7
3 -2 5 12 5 14 0 19 -2 13 -5z m-10 -30 c-7 -2 -19 -2 -25 0 -7 3 -2 5 12 5
14 0 19 -2 13 -5z m-4310 -30 c-7 -2 -19 -2 -25 0 -7 3 -2 5 12 5 14 0 19 -2
13 -5z m4162 -13 c3 -5 -1 -10 -10 -10 -11 0 -15 -6 -10 -19 3 -11 0 -21 -9
-24 -19 -7 -56 3 -56 15 0 6 9 8 21 5 15 -4 22 1 29 19 10 25 24 31 35 14z
m-4205 -10 c0 -5 -7 -7 -15 -4 -8 4 -15 8 -15 10 0 2 7 4 15 4 8 0 15 -4 15
-10z m53 -4 c4 -9 14 -12 25 -9 11 2 23 0 26 -6 10 -16 -55 -13 -76 3 -10 7
-15 16 -11 19 11 12 31 8 36 -7z m82 -47 c-4 -5 8 -7 27 -4 29 4 30 4 8 -4
-22 -8 -19 -9 19 -10 52 -1 51 -8 -2 -15 -21 -2 -37 0 -37 5 0 6 -4 8 -8 5 -4
-2 -19 4 -32 15 -15 12 -18 17 -7 13 10 -4 17 -1 17 6 0 6 5 8 10 5 6 -4 8
-11 5 -16z m3942 -5 c-3 -3 -12 -4 -19 -1 -8 3 -5 6 6 6 11 1 17 -2 13 -5z
m-30 -20 c-3 -3 -12 -4 -19 -1 -8 3 -5 6 6 6 11 1 17 -2 13 -5z m53 -4 c0 -5
-7 -10 -15 -10 -8 0 -15 5 -15 10 0 6 7 10 15 10 8 0 15 -4 15 -10z m-114 -26
c-22 -16 -36 -18 -36 -6 0 11 43 32 50 25 3 -3 -4 -11 -14 -19z m-3696 -3 c0
-3 -21 -4 -47 -2 -38 3 -43 6 -23 11 27 7 70 2 70 -9z m3760 9 c0 -5 -9 -10
-21 -10 -11 0 -17 5 -14 10 3 6 13 10 21 10 8 0 14 -4 14 -10z m-3793 -26 c-3
-3 -12 -4 -19 -1 -8 3 -5 6 6 6 11 1 17 -2 13 -5z m3698 -5 c15 -7 12 -8 -12
-3 -21 3 -33 1 -33 -5 0 -6 5 -11 11 -11 5 0 7 -4 4 -10 -8 -14 -34 11 -28 27
6 15 29 16 58 2z m43 -3 c-7 -8 -15 -12 -17 -11 -5 6 10 25 20 25 5 0 4 -6 -3
-14z m-3622 -11 c14 -13 13 -15 -6 -15 -12 0 -19 4 -16 9 4 5 0 12 -6 14 -10
4 -10 6 0 6 7 1 20 -6 28 -14z m3489 -5 c3 -5 1 -10 -4 -10 -6 0 -11 5 -11 10
0 6 2 10 4 10 3 0 8 -4 11 -10z m-3531 -8 c3 -5 -1 -9 -9 -9 -8 0 -15 4 -15 9
0 4 4 8 9 8 6 0 12 -4 15 -8z m94 -10 c2 -7 -2 -10 -12 -6 -9 3 -16 11 -16 16
0 13 23 5 28 -10z m3400 -4 c-3 -7 -13 -15 -24 -17 -16 -3 -17 -1 -5 13 16 19
34 21 29 4z m-3429 -23 c3 -17 2 -17 -13 -3 -19 20 -21 31 -3 26 6 -3 14 -13
16 -23z m3491 20 c0 -6 -79 -41 -112 -49 -18 -4 -28 -2 -28 4 0 6 5 8 12 4 7
-5 8 -3 3 5 -5 9 -10 10 -18 2 -6 -6 -22 -11 -36 -11 -15 0 -21 4 -15 9 13 13
84 24 84 13 0 -5 11 -7 25 -4 14 2 25 8 25 12 0 7 10 11 53 19 4 0 7 -1 7 -4z
m-3415 -15 c8 -13 -5 -13 -25 0 -13 8 -13 10 2 10 9 0 20 -4 23 -10z m83 -25
c17 -3 32 -10 32 -15 0 -5 -20 -2 -45 7 -25 8 -45 20 -45 25 0 7 4 7 13 0 6
-5 27 -13 45 -17z m-92 -1 c10 -8 13 -12 6 -9 -8 4 -26 11 -40 15 -22 7 -23 8
-6 9 11 1 29 -6 40 -15z m84 -23 c0 -5 10 -11 22 -14 12 -4 20 -9 17 -12 -6
-6 -79 22 -79 30 0 3 9 5 20 5 11 0 20 -4 20 -9z m3165 -1 c-3 -5 -19 -10 -36
-10 -18 0 -29 -5 -29 -14 0 -20 -30 -29 -36 -11 -4 9 -16 13 -32 11 -15 -2
-20 -1 -12 1 8 3 18 10 23 17 5 8 10 7 17 -4 7 -10 12 -12 18 -4 14 22 100 35
87 14z m-3049 -17 c11 -2 29 -19 38 -36 12 -22 13 -26 2 -13 -9 11 -22 16 -31
13 -19 -8 -66 13 -58 26 3 5 -1 14 -8 19 -10 7 -7 8 11 3 14 -4 34 -9 46 -12z
m162 -53 c1 0 2 -7 2 -15 0 -9 9 -15 23 -14 21 0 21 1 2 9 -11 5 -14 9 -7 9 7
1 22 -4 32 -9 10 -6 30 -11 44 -12 15 -1 26 -5 26 -8 0 -3 12 -6 28 -6 43 -2
122 -22 92 -23 -22 -1 -23 -3 -7 -12 9 -6 15 -15 11 -20 -4 -6 -18 0 -34 16
-24 23 -33 26 -56 18 -16 -5 -40 -6 -54 -2 -14 5 -46 14 -72 21 -27 7 -48 18
-48 25 0 7 -5 13 -11 13 -5 0 -8 -4 -4 -10 3 -5 -9 -4 -27 3 l-33 11 30 7 c17
4 23 8 13 9 -10 1 -22 4 -28 5 -5 1 -14 3 -20 4 -5 0 -10 5 -10 11 0 5 24 1
53 -10 28 -11 53 -20 55 -20z m2744 20 c10 0 18 -4 18 -10 0 -6 -9 -6 -26 0
-32 12 -47 13 -40 1 3 -5 -1 -12 -10 -15 -10 -4 -13 -2 -8 7 18 31 27 38 38
27 5 -5 18 -10 28 -10z m-72 0 c0 -5 -12 -10 -27 -9 l-28 1 25 8 c14 4 26 8
28 9 1 1 2 -3 2 -9z m-76 -28 c-6 -4 -13 -15 -17 -24 -3 -10 -15 -18 -26 -18
-11 0 -28 -3 -38 -6 -15 -5 -16 -4 -3 6 12 9 10 11 -13 7 -15 -2 -30 -1 -32 3
-7 12 43 18 54 7 5 -5 15 -6 22 -1 9 5 8 9 -7 15 -15 6 -12 8 13 8 17 1 35 6
38 12 4 6 10 8 13 4 4 -3 2 -9 -4 -13z m36 -22 c-19 -13 -30 -13 -30 0 0 6 10
10 23 10 18 0 19 -2 7 -10z m-190 -20 c0 -5 -7 -10 -15 -10 -8 0 -15 -6 -15
-14 0 -17 -42 -24 -90 -15 l-35 6 38 2 c22 0 37 6 38 14 0 10 2 10 6 0 2 -7
10 -13 16 -13 5 0 7 3 3 7 -3 4 4 13 16 20 28 15 38 16 38 3z m-97 -17 c-7 -2
-19 -2 -25 0 -7 3 -2 5 12 5 14 0 19 -2 13 -5z m122 -7 c-32 -14 -41 -13 -30
3 3 6 18 11 33 11 l27 -1 -30 -13z m-2270 -6 c3 -5 -1 -10 -9 -10 -9 0 -16 5
-16 10 0 6 4 10 9 10 6 0 13 -4 16 -10z m103 -7 c-34 -9 -18 -23 25 -22 37 1
39 2 17 10 -19 6 -15 7 15 3 55 -8 66 -17 30 -25 -29 -6 -29 -7 8 -8 20 0 37
4 37 9 0 6 8 10 18 10 13 0 14 -2 3 -9 -7 -5 -11 -14 -7 -20 8 -13 -83 -4 -98
10 -6 5 -20 9 -32 9 -39 0 -56 10 -43 26 6 8 19 13 28 13 13 -1 13 -2 -1 -6z
m1982 -3 c0 -5 -9 -10 -21 -10 -11 0 -17 5 -14 10 3 6 13 10 21 10 8 0 14 -4
14 -10z m-85 -20 c4 -6 -7 -10 -27 -9 -31 1 -32 1 -8 9 14 4 26 8 27 9 1 1 5
-3 8 -9z m120 0 c4 -6 -5 -10 -20 -10 -15 0 -24 4 -20 10 3 6 12 10 20 10 8 0
17 -4 20 -10z m-132 -21 l52 -2 -50 -6 c-27 -4 -54 -9 -60 -13 -5 -3 -37 -9
-70 -12 -33 -4 -68 -9 -77 -12 -10 -3 -18 -1 -18 5 0 8 38 16 133 25 15 1 30
6 35 11 4 4 -15 5 -43 1 -27 -4 -68 -9 -90 -11 -37 -4 -38 -4 -10 5 17 5 52
12 80 16 27 3 52 8 55 10 2 3 6 0 8 -5 2 -6 27 -12 55 -12z m73 12 c-3 -5 -15
-7 -26 -4 -28 7 -25 13 6 13 14 0 23 -4 20 -9z m-1645 -39 c24 -23 15 -27 -31
-12 -21 7 -22 8 -5 9 17 1 17 3 5 11 -20 13 -90 13 -90 0 0 -5 -4 -10 -10 -10
-18 0 -10 17 12 27 30 13 91 0 119 -25z m49 8 c12 -8 12 -10 -5 -10 -11 0 -27
5 -35 10 -12 8 -12 10 5 10 11 0 27 -5 35 -10z m1275 0 c-11 -5 -29 -8 -40 -8
-16 0 -15 2 5 8 34 11 60 11 35 0z m-1205 -4 c0 -2 -11 -6 -25 -8 -14 -3 -25
-1 -25 3 0 5 11 9 25 9 14 0 25 -2 25 -4z m52 -18 c-10 -10 -44 0 -37 12 3 5
14 6 26 3 12 -3 17 -9 11 -15z m1088 13 c0 -12 -39 -21 -45 -11 -3 5 5 11 17
13 13 2 24 5 26 6 1 0 2 -3 2 -8z m-60 -12 c0 -5 -11 -9 -25 -9 -14 0 -25 4
-25 9 0 5 11 9 25 9 14 0 25 -4 25 -9z m-937 -6 c-7 -2 -19 -2 -25 0 -7 3 -2
5 12 5 14 0 19 -2 13 -5z m47 -3 c0 -5 -7 -7 -15 -4 -8 4 -15 8 -15 10 0 2 7
4 15 4 8 0 15 -4 15 -10z m740 1 c0 -5 -7 -12 -16 -15 -22 -9 -94 -7 -94 2 0
4 20 7 45 7 25 0 45 3 45 7 0 5 5 8 10 8 6 0 10 -4 10 -9z m73 2 c-13 -2 -33
-2 -45 0 -13 2 -3 4 22 4 25 0 35 -2 23 -4z m214 1 c-10 -11 -81 -23 -91 -16
-6 4 7 10 29 13 60 9 69 10 62 3z m-1207 -13 c0 -8 -79 -3 -89 5 -2 2 17 4 42
4 26 0 47 -4 47 -9z m326 -4 c11 -11 -109 -8 -126 3 -11 7 5 9 52 7 37 -2 70
-6 74 -10z m459 3 c3 -5 -1 -10 -10 -10 -9 0 -13 5 -10 10 3 6 8 10 10 10 2 0
7 -4 10 -10z m-691 -10 c-6 -6 -21 -6 -39 -1 -30 9 -30 9 10 10 25 1 36 -2 29
-9z m406 1 c0 -4 -11 -6 -25 -3 -13 2 -37 1 -52 -3 l-28 -8 30 -7 c17 -4 -12
-6 -64 -4 -94 3 -141 14 -63 14 23 0 42 5 42 10 0 6 33 10 80 10 44 0 80 -4
80 -9z m50 -1 c0 -5 -9 -10 -20 -10 -11 0 -20 5 -20 10 0 6 9 10 20 10 11 0
20 -4 20 -10z m99 6 c-10 -9 -79 -14 -79 -5 0 5 19 9 42 9 23 0 39 -2 37 -4z
m91 0 c0 -2 -18 -6 -40 -8 -22 -2 -40 0 -40 4 0 5 18 8 40 8 22 0 40 -2 40 -4z
m264 -11 c-4 -8 -7 -15 -9 -15 -2 0 -5 7 -9 15 -3 9 0 15 9 15 9 0 12 -6 9
-15z m96 11 c0 -8 -48 -12 -66 -5 -13 5 -7 8 24 8 23 1 42 -1 42 -3z m-140
-16 c0 -5 -12 -10 -27 -10 -22 0 -25 2 -13 10 20 13 40 13 40 0z m-797 -7 c-7
-2 -21 -2 -30 0 -10 3 -4 5 12 5 17 0 24 -2 18 -5z m75 0 c-10 -2 -28 -2 -40
0 -13 2 -5 4 17 4 22 1 32 -1 23 -4z m517 -3 c-3 -5 -14 -10 -23 -10 -15 0
-15 2 -2 10 20 13 33 13 25 0z m40 0 c3 -5 2 -10 -4 -10 -5 0 -13 5 -16 10 -3
6 -2 10 4 10 5 0 13 -4 16 -10z m105 6 c0 -2 -18 -6 -40 -8 -22 -2 -40 0 -40
4 0 5 18 8 40 8 22 0 40 -2 40 -4z m-387 -13 c-7 -2 -21 -2 -30 0 -10 3 -4 5
12 5 17 0 24 -2 18 -5z m70 0 c-7 -2 -21 -2 -30 0 -10 3 -4 5 12 5 17 0 24 -2
18 -5z m67 3 c0 -9 -30 -14 -35 -6 -4 6 3 10 14 10 12 0 21 -2 21 -4z m37 -2
c-3 -3 -12 -4 -19 -1 -8 3 -5 6 6 6 11 1 17 -2 13 -5z"/>
<path d="M6882 10535 c-58 -16 -83 -28 -114 -53 -52 -44 -67 -62 -94 -117 -26
-53 -29 -71 -29 -150 0 -79 3 -97 29 -147 36 -71 96 -128 166 -159 44 -19 72
-24 140 -23 73 0 93 4 139 28 134 69 211 219 181 353 -26 115 -118 227 -210
258 -70 23 -148 27 -208 10z m218 -51 c83 -40 147 -118 165 -203 21 -97 -10
-217 -71 -273 -57 -53 -77 -68 -85 -62 -5 3 -9 1 -9 -5 0 -15 -109 -34 -161
-28 -26 3 -66 15 -88 27 -23 11 -41 18 -41 14 0 -9 -76 72 -102 109 -13 18
-21 32 -20 32 2 0 -2 14 -8 30 -19 47 -8 174 19 226 30 57 80 109 105 109 14
0 17 3 9 8 -8 5 6 14 40 25 28 9 59 18 67 21 31 11 130 -6 180 -30z"/>
<path d="M6938 10493 c18 -2 45 -2 60 0 15 2 0 4 -33 4 -33 0 -45 -2 -27 -4z"/>
<path d="M6876 10465 c-21 -8 -45 -20 -52 -26 -7 -6 -18 -8 -23 -4 -7 4 -8 -1
-4 -12 3 -10 3 -15 -2 -11 -11 10 -59 -58 -75 -105 -8 -25 -10 -65 -6 -115 10
-118 10 -120 24 -115 6 3 12 1 12 -4 0 -19 76 -86 118 -104 53 -23 143 -25
201 -4 43 15 57 24 98 65 14 14 30 25 36 25 6 0 12 7 14 15 4 13 3 13 -6 0
-15 -21 -14 -12 8 45 22 59 21 148 -3 196 -19 38 -20 53 -4 43 7 -5 8 -3 4 5
-5 7 -10 10 -13 7 -3 -2 -22 13 -44 34 -21 21 -56 46 -76 55 -50 24 -157 29
-207 10z"/>
<path d="M6683 10225 c0 -22 2 -30 4 -17 2 12 2 30 0 40 -3 9 -5 -1 -4 -23z"/>
<path d="M7253 10215 c0 -27 2 -38 4 -22 2 15 2 37 0 50 -2 12 -4 0 -4 -28z"/>
<path d="M6918 9933 c7 -3 16 -2 19 1 4 3 -2 6 -13 5 -11 0 -14 -3 -6 -6z"/>
<path d="M10835 7926 c-32 -14 -54 -49 -49 -79 4 -30 33 -66 58 -73 34 -8 94
20 106 51 26 69 -45 131 -115 101z"/>
<path d="M10542 7698 c-43 -47 -15 -121 46 -121 45 0 62 18 62 68 0 47 -12 62
-56 71 -22 4 -34 0 -52 -18z"/>
<path d="M12705 7501 c-3 -5 -1 -12 5 -16 5 -3 10 1 10 9 0 18 -6 21 -15 7z"/>
<path d="M11016 7528 c-38 -33 -44 -78 -14 -112 31 -36 75 -47 122 -31 46 16
65 40 66 82 0 72 -116 112 -174 61z"/>
<path d="M10664 7378 c-22 -10 -44 -47 -44 -73 0 -54 69 -101 121 -83 41 14
61 42 61 85 0 66 -72 103 -138 71z"/>
<path d="M11185 7201 c-93 -26 -109 -151 -25 -194 110 -57 212 82 125 170 -19
19 -73 31 -100 24z"/>
<path d="M10757 7035 c-31 -32 -38 -67 -20 -102 20 -40 41 -53 86 -53 91 0
130 112 58 167 -29 22 -95 16 -124 -12z"/>
<path d="M8830 6036 c0 -29 -159 -176 -192 -176 -21 -1 -51 -27 -39 -35 6 -3
11 -16 11 -29 0 -12 3 -26 7 -30 4 -3 8 -12 9 -19 5 -38 26 -136 34 -157 4
-14 15 -61 25 -105 9 -44 20 -88 26 -97 5 -10 9 -32 9 -50 0 -18 4 -38 8 -45
8 -13 52 -7 52 7 0 4 13 10 29 13 36 8 145 57 149 68 2 5 9 9 15 9 17 0 119
79 189 144 32 31 57 56 54 56 -3 0 10 17 29 37 18 20 39 48 46 62 7 14 20 34
28 44 12 14 12 17 0 17 -12 0 -83 42 -114 68 -5 4 -30 19 -55 32 -25 14 -47
28 -50 31 -11 12 -161 109 -169 109 -5 0 -14 7 -21 15 -7 9 -15 13 -17 11 -3
-3 -14 4 -26 15 -25 23 -37 24 -37 5z"/>
<path d="M8524 5929 c13 -51 116 -631 116 -659 0 -8 8 -8 48 5 17 6 21 13 18
34 -2 14 -5 26 -6 26 -1 0 -3 9 -5 20 -2 11 -24 103 -49 204 -25 101 -43 188
-40 193 3 4 1 8 -3 8 -5 0 -9 9 -10 21 -1 11 -9 39 -17 62 -9 23 -17 56 -19
72 -2 19 -10 31 -22 34 -14 2 -17 -1 -11 -20z"/>
<path d="M11295 6713 c-11 -3 -34 -16 -51 -29 -66 -49 -49 -149 30 -179 39
-15 45 -15 84 0 67 27 91 89 58 153 -20 39 -78 65 -121 55z"/>
<path d="M10872 6604 c-52 -36 -48 -104 7 -137 54 -32 118 -12 141 44 12 27
11 36 -1 58 -28 49 -102 67 -147 35z"/>
<path d="M11320 6218 c-72 -18 -113 -105 -72 -153 61 -71 164 -72 224 -1 62
75 -42 181 -152 154z"/>
<path d="M10928 6178 c-27 -29 -30 -38 -25 -77 10 -87 102 -122 166 -62 26 24
31 37 31 74 0 38 -5 49 -31 71 -46 39 -102 36 -141 -6z"/>
<path d="M10982 5640 c-12 -5 -29 -25 -38 -43 -15 -32 -15 -37 1 -70 31 -66
150 -64 173 3 28 79 -51 144 -136 110z"/>
<path d="M11235 5626 c-50 -51 -39 -115 26 -150 51 -27 108 -11 134 37 20 39
16 70 -16 110 -17 23 -28 27 -70 27 -39 0 -55 -5 -74 -24z"/>
<path d="M10887 5245 c-32 -33 -39 -72 -21 -111 49 -103 206 -41 178 70 -15
63 -110 87 -157 41z"/>
<path d="M11160 5199 c-65 -27 -70 -123 -9 -154 85 -45 192 24 160 103 -6 15
-20 33 -31 40 -28 17 -91 23 -120 11z"/>
<path d="M10705 4818 c-31 -17 -45 -39 -45 -72 0 -36 6 -46 40 -69 51 -35 129
-13 148 42 12 33 -7 84 -37 100 -25 14 -80 14 -106 -1z"/>
<path d="M10985 4678 c-74 -43 -52 -125 35 -135 38 -4 49 -1 73 21 26 24 35
60 19 82 -27 39 -88 54 -127 32z"/>
<path d="M10435 4518 c-33 -17 -45 -40 -45 -80 0 -102 148 -125 180 -29 21 63
-21 121 -87 121 -15 0 -37 -6 -48 -12z"/>
<path d="M6673 4485 c-61 -26 -52 -125 14 -141 82 -21 129 102 53 141 -34 18
-27 18 -67 0z"/>
<path d="M6481 4284 c-25 -32 -27 -71 -3 -101 17 -21 34 -26 79 -24 24 1 53
45 53 79 0 35 -38 72 -75 72 -24 0 -39 -7 -54 -26z"/>
<path d="M6854 4285 c-13 -13 -24 -35 -24 -49 0 -60 93 -91 126 -41 21 32 12
91 -16 100 -48 15 -63 13 -86 -10z"/>
<path d="M10680 4303 c-56 -18 -77 -44 -71 -88 4 -33 48 -65 90 -65 97 0 125
101 41 145 -30 16 -36 16 -60 8z"/>
<path d="M9923 4128 c-45 -22 -54 -106 -15 -141 9 -8 34 -18 54 -22 33 -6 41
-3 68 23 76 76 -9 188 -107 140z"/>
<path d="M6692 4087 c-48 -51 -14 -127 58 -127 71 0 103 68 59 124 -27 35 -86
36 -117 3z"/>
<path d="M7159 4049 c-23 -25 -27 -36 -22 -62 11 -58 50 -84 102 -66 52 18 61
89 18 137 -28 31 -63 28 -98 -9z"/>
<path d="M7432 3975 c-59 -25 -60 -121 -2 -145 30 -12 75 -7 97 12 7 5 15 25
19 44 12 66 -51 115 -114 89z"/>
<path d="M9596 3936 c-49 -45 -25 -129 40 -142 90 -18 148 98 76 152 -28 22
-88 17 -116 -10z"/>
<path d="M7056 3859 c-59 -47 -15 -149 59 -135 63 12 85 82 40 130 -29 31 -63
33 -99 5z"/>
<path d="M10052 3855 c-67 -56 -28 -145 63 -145 60 0 95 32 95 87 -1 45 -31
72 -89 80 -30 4 -43 0 -69 -22z"/>
<path d="M7876 3818 c-22 -31 -20 -70 5 -102 25 -32 59 -33 87 -3 28 29 29 87
4 110 -27 25 -78 22 -96 -5z"/>
<path d="M8166 3779 c-32 -25 -36 -79 -8 -109 49 -53 132 -22 132 48 0 43 -7
55 -37 71 -32 16 -57 14 -87 -10z"/>
<path d="M9003 3778 c-44 -31 -46 -82 -6 -123 24 -23 34 -26 71 -22 73 8 102
65 65 127 -27 46 -80 53 -130 18z"/>
<path d="M8679 3741 c-33 -34 -37 -69 -12 -112 29 -49 126 -52 157 -4 19 29
20 83 3 106 -36 47 -105 52 -148 10z"/>
<path d="M7310 3738 c-30 -32 -34 -61 -15 -102 29 -60 111 -62 141 -4 18 35
12 88 -12 113 -24 23 -89 19 -114 -7z"/>
<path d="M9696 3695 c-42 -39 -35 -105 15 -130 89 -46 177 23 138 108 -23 51
-108 63 -153 22z"/>
<path d="M7864 3580 c-28 -11 -54 -48 -54 -76 0 -12 9 -32 19 -45 27 -33 110
-34 140 -2 59 62 -23 157 -105 123z"/>
<path d="M8165 3548 c-35 -20 -45 -36 -45 -68 0 -43 14 -66 50 -78 41 -15 86
2 105 39 21 39 19 53 -11 88 -28 33 -63 40 -99 19z"/>
<path d="M9104 3528 c-24 -11 -41 -40 -48 -80 -6 -38 41 -88 83 -88 42 0 77
18 90 47 25 55 4 108 -48 123 -43 12 -50 12 -77 -2z"/>
<path d="M8748 3465 c-50 -28 -49 -124 2 -150 37 -19 55 -19 91 2 32 19 42 42
41 87 -2 58 -78 93 -134 61z"/>
<path d="M6960 2016 c0 -9 40 -13 46 -5 3 5 -6 9 -20 9 -14 0 -26 -2 -26 -4z"/>
<path d="M7208 1933 c7 -3 16 -2 19 1 4 3 -2 6 -13 5 -11 0 -14 -3 -6 -6z"/>
</g>
</svg>
